<svg width="50" height="50" viewBox="0 0 50 50" fill="none" xmlns="http://www.w3.org/2000/svg">
<g clip-path="url(#clip0)">
<path d="M27.7499 29.5122L25.2592 30.8122C22.6998 32.1779 19.4592 31.5279 17.5685 29.2622L16.3435 27.7935C15.306 26.5434 15.3904 24.7341 16.5404 23.5872L24.1717 15.9559L22.6686 15.0715C22.4279 14.9309 22.1529 14.8559 21.8748 14.8559H16.1998L17.0216 13.2121C17.4091 12.4402 17.0935 11.5027 16.3216 11.1152L11.6341 8.77143C10.8653 8.38706 9.92784 8.69956 9.54033 9.47144L0.165261 28.2216C-0.222242 28.9935 0.0933853 29.931 0.865266 30.3185L5.5528 32.6622C5.77468 32.7747 6.01218 32.8247 6.24968 32.8247C6.82469 32.8247 7.37469 32.506 7.64969 31.9622L8.18095 30.9029L20.2967 39.8623C21.6811 40.8842 23.3311 41.3936 24.978 41.3936C26.653 41.3936 28.3217 40.8654 29.7061 39.8123L35.1437 35.6373L27.7499 29.5122Z" fill="white"/>
<path d="M49.8341 28.2215L40.4591 9.47139C40.0716 8.69638 39.1372 8.38701 38.3622 8.77139L33.6746 11.1152C32.9027 11.5027 32.5902 12.4402 32.9746 13.212L33.7996 14.8558H29.6902L18.7495 25.7934L19.9714 27.2622C20.9152 28.3934 22.5245 28.7247 23.8027 28.0465L28.1496 25.7809L37.6965 33.6903L41.6841 30.6153L42.3559 31.9591C42.6309 32.5059 43.1841 32.8216 43.7528 32.8216C43.9872 32.8216 44.2247 32.7684 44.4528 32.6559L49.1404 30.3122C49.9091 29.9309 50.2185 28.9934 49.8341 28.2215Z" fill="white"/>
</g>
<defs>
<clipPath id="clip0">
<rect width="50" height="50" fill="white"/>
</clipPath>
</defs>
</svg>
