<svg width="50" height="50" viewBox="0 0 50 50" fill="none" xmlns="http://www.w3.org/2000/svg">
<g clip-path="url(#clip0)">
<path d="M34.4021 20.4956C40.0618 20.4956 44.6499 15.9075 44.6499 10.2478C44.6499 4.5881 40.0618 0 34.4021 0C28.7424 0 24.1543 4.5881 24.1543 10.2478C24.1543 15.9075 28.7424 20.4956 34.4021 20.4956Z" fill="white"/>
<path d="M16.5738 37.6096C15.2134 37.6096 13.9341 38.1395 12.9721 39.1016L11.7153 40.3583C11.0129 41.0607 9.87005 41.0607 9.16732 40.3583C8.46498 39.6559 8.46498 38.513 9.16732 37.8105L10.5563 36.4213C11.7636 36.8522 13.1499 36.6663 14.2195 35.8319L30.4151 23.1937C28.3279 22.5538 26.4155 21.4096 24.8282 19.822C23.2405 18.2344 22.0962 16.3219 21.4561 14.2345L8.81771 30.4302C7.98314 31.4997 7.7974 32.8862 8.22826 34.0935L6.8392 35.4827C4.85308 37.4688 4.85308 40.7003 6.8392 42.6865C8.82582 44.6727 12.0572 44.6726 14.0431 42.6865L15.2999 41.4298C16.0024 40.7275 17.1451 40.7274 17.8478 41.4298C18.5501 42.1322 18.5501 43.2751 17.8478 43.9776L14.153 47.6723L16.4811 50.0003L20.1758 46.3056C22.1619 44.3195 22.1619 41.0879 20.1758 39.1018C19.2137 38.1395 17.9345 37.6096 16.5738 37.6096Z" fill="white"/>
</g>
<defs>
<clipPath id="clip0">
<rect width="50" height="50" fill="white"/>
</clipPath>
</defs>
</svg>
