<svg width="279" height="319" viewBox="0 0 279 319" fill="none" xmlns="http://www.w3.org/2000/svg">
<path d="M128.581 75.767C141.671 73.2384 155.172 73.827 167.992 77.4854C180.812 81.1438 192.591 87.7691 202.375 96.8251C212.16 105.881 219.674 117.114 224.311 129.613C228.948 142.113 230.577 155.528 229.066 168.775C227.555 182.021 222.947 194.725 215.614 205.859C208.282 216.994 198.431 226.245 186.859 232.865C175.286 239.486 162.318 243.288 149.003 243.966C135.689 244.643 122.401 242.176 110.217 236.765L125.729 201.838C132.431 204.815 139.738 206.171 147.062 205.799C154.385 205.426 161.517 203.335 167.882 199.694C174.247 196.053 179.665 190.964 183.698 184.84C187.731 178.716 190.265 171.729 191.096 164.444C191.927 157.158 191.031 149.78 188.481 142.905C185.931 136.03 181.798 129.852 176.416 124.871C171.035 119.891 164.557 116.247 157.505 114.235C150.454 112.223 143.029 111.899 135.829 113.29L128.581 75.767Z" fill="#E23744"/>
<path d="M106.705 244.458C91.2666 237.659 75.9706 225.527 66.9465 211.274C57.9225 197.022 50.8361 173.473 51.2938 156.61L97.9586 157.844C97.7532 165.41 101.057 177.311 105.105 183.706C109.154 190.1 118.781 198.752 125.708 201.802L106.705 244.458Z" fill="#F4C300"/>
<path d="M59.797 156.746C60.3435 137.456 67.4431 118.928 79.9265 104.212C92.4099 89.4967 109.533 79.4714 128.475 75.7875L135.771 113.301C125.353 115.327 115.935 120.841 109.069 128.934C102.203 137.028 98.2985 147.219 97.9979 157.828L59.797 156.746Z" fill="#3AD289"/>
<path d="M121.491 157.082C120.384 157.082 119.431 156.895 118.631 156.522C117.844 156.148 117.237 155.655 116.811 155.042C116.397 154.428 116.177 153.768 116.151 153.062V153.022C116.151 152.915 116.191 152.828 116.271 152.762C116.351 152.695 116.451 152.662 116.571 152.662H118.431C118.737 152.662 118.937 152.795 119.031 153.062C119.217 153.648 119.524 154.082 119.951 154.362C120.391 154.642 120.904 154.782 121.491 154.782C122.237 154.782 122.857 154.555 123.351 154.102C123.857 153.648 124.111 153.015 124.111 152.202C124.111 151.482 123.857 150.895 123.351 150.442C122.857 149.988 122.237 149.762 121.491 149.762C121.091 149.762 120.764 149.815 120.511 149.922C120.257 150.028 120.011 150.175 119.771 150.362C119.611 150.482 119.484 150.568 119.391 150.622C119.311 150.662 119.211 150.682 119.091 150.682H117.251C117.131 150.682 117.024 150.642 116.931 150.562C116.851 150.468 116.811 150.362 116.811 150.242L117.511 143.402C117.524 143.242 117.577 143.115 117.671 143.022C117.777 142.915 117.911 142.862 118.071 142.862H125.591C125.724 142.862 125.837 142.908 125.931 143.002C126.024 143.095 126.071 143.208 126.071 143.342V144.682C126.071 144.815 126.024 144.928 125.931 145.022C125.837 145.115 125.724 145.162 125.591 145.162H119.811L119.491 148.422C120.144 147.968 121.017 147.742 122.111 147.742C122.977 147.742 123.777 147.928 124.511 148.302C125.257 148.662 125.851 149.188 126.291 149.882C126.731 150.562 126.951 151.355 126.951 152.262C126.951 153.235 126.724 154.088 126.271 154.822C125.817 155.542 125.177 156.102 124.351 156.502C123.537 156.888 122.584 157.082 121.491 157.082ZM130.673 156.862C130.553 156.862 130.453 156.822 130.373 156.742C130.293 156.648 130.253 156.542 130.253 156.422C130.253 156.382 130.266 156.322 130.293 156.242L135.113 145.242H128.833C128.7 145.242 128.586 145.195 128.493 145.102C128.4 145.008 128.353 144.895 128.353 144.762V143.362C128.353 143.215 128.393 143.095 128.473 143.002C128.566 142.908 128.686 142.862 128.833 142.862H137.613C137.76 142.862 137.873 142.908 137.953 143.002C138.046 143.095 138.093 143.215 138.093 143.362V144.602C138.093 144.868 138.033 145.155 137.913 145.462L133.133 156.382C132.986 156.702 132.773 156.862 132.493 156.862H130.673ZM138.621 158.362C138.501 158.362 138.408 158.322 138.341 158.242C138.275 158.162 138.248 158.062 138.261 157.942L138.801 154.542C138.828 154.355 138.895 154.202 139.001 154.082C139.108 153.962 139.255 153.902 139.441 153.902H141.281C141.375 153.902 141.455 153.942 141.521 154.022C141.601 154.088 141.641 154.175 141.641 154.282C141.641 154.348 141.621 154.435 141.581 154.542L140.301 157.862C140.235 158.022 140.148 158.142 140.041 158.222C139.948 158.315 139.815 158.362 139.641 158.362H138.621ZM146.907 156.862C146.773 156.862 146.66 156.815 146.567 156.722C146.473 156.628 146.427 156.515 146.427 156.382V146.022L143.387 148.362C143.307 148.428 143.213 148.462 143.107 148.462C142.947 148.462 142.813 148.388 142.707 148.242L141.867 147.162C141.8 147.055 141.767 146.955 141.767 146.862C141.767 146.702 141.84 146.568 141.987 146.462L146.467 143.002C146.587 142.908 146.753 142.862 146.967 142.862H148.727C148.873 142.862 148.987 142.908 149.067 143.002C149.16 143.082 149.207 143.195 149.207 143.342V156.382C149.207 156.515 149.16 156.628 149.067 156.722C148.987 156.815 148.873 156.862 148.727 156.862H146.907ZM157.185 157.062C155.411 157.062 154.085 156.568 153.205 155.582C152.338 154.595 151.865 153.302 151.785 151.702C151.771 151.342 151.765 150.728 151.765 149.862C151.765 148.982 151.771 148.355 151.785 147.982C151.851 146.408 152.331 145.128 153.225 144.142C154.118 143.155 155.438 142.662 157.185 142.662C158.945 142.662 160.271 143.155 161.165 144.142C162.058 145.128 162.531 146.408 162.585 147.982C162.611 148.355 162.625 148.982 162.625 149.862C162.625 150.728 162.611 151.342 162.585 151.702C162.518 153.302 162.045 154.595 161.165 155.582C160.298 156.568 158.971 157.062 157.185 157.062ZM157.185 154.762C158.025 154.762 158.651 154.488 159.065 153.942C159.478 153.382 159.698 152.602 159.725 151.602C159.751 150.828 159.765 150.242 159.765 149.842C159.765 149.402 159.751 148.822 159.725 148.102C159.698 147.115 159.478 146.342 159.065 145.782C158.651 145.222 158.025 144.942 157.185 144.942C156.358 144.942 155.731 145.222 155.305 145.782C154.891 146.342 154.671 147.115 154.645 148.102C154.631 148.462 154.625 149.042 154.625 149.842C154.625 150.628 154.631 151.215 154.645 151.602C154.671 152.602 154.891 153.382 155.305 153.942C155.731 154.488 156.358 154.762 157.185 154.762ZM166.669 156.862C166.549 156.862 166.449 156.822 166.369 156.742C166.289 156.648 166.249 156.542 166.249 156.422C166.249 156.382 166.262 156.322 166.289 156.242L171.109 145.242H164.829C164.696 145.242 164.582 145.195 164.489 145.102C164.396 145.008 164.349 144.895 164.349 144.762V143.362C164.349 143.215 164.389 143.095 164.469 143.002C164.562 142.908 164.682 142.862 164.829 142.862H173.609C173.756 142.862 173.869 142.908 173.949 143.002C174.042 143.095 174.089 143.215 174.089 143.362V144.602C174.089 144.868 174.029 145.155 173.909 145.462L169.129 156.382C168.982 156.702 168.769 156.862 168.489 156.862H166.669Z" fill="black"/>
<path d="M104.531 178.862C104.444 178.862 104.37 178.836 104.31 178.784C104.258 178.723 104.232 178.649 104.232 178.563V170.919H101.736C101.649 170.919 101.575 170.893 101.515 170.841C101.463 170.78 101.437 170.706 101.437 170.62V170.074C101.437 169.987 101.463 169.913 101.515 169.853C101.575 169.792 101.649 169.762 101.736 169.762H108.002C108.097 169.762 108.171 169.792 108.223 169.853C108.283 169.905 108.314 169.978 108.314 170.074V170.62C108.314 170.706 108.283 170.78 108.223 170.841C108.162 170.893 108.088 170.919 108.002 170.919H105.519V178.563C105.519 178.649 105.488 178.723 105.428 178.784C105.367 178.836 105.293 178.862 105.207 178.862H104.531ZM111.127 178.992C110.174 178.992 109.433 178.723 108.904 178.186C108.384 177.648 108.107 176.933 108.072 176.041L108.059 175.482L108.072 174.923C108.107 174.039 108.388 173.328 108.917 172.791C109.446 172.245 110.182 171.972 111.127 171.972C112.072 171.972 112.808 172.245 113.337 172.791C113.866 173.328 114.147 174.039 114.182 174.923C114.191 175.018 114.195 175.204 114.195 175.482C114.195 175.759 114.191 175.945 114.182 176.041C114.147 176.933 113.866 177.648 113.337 178.186C112.817 178.723 112.08 178.992 111.127 178.992ZM111.127 177.991C111.673 177.991 112.102 177.817 112.414 177.471C112.735 177.124 112.908 176.626 112.934 175.976C112.943 175.889 112.947 175.724 112.947 175.482C112.947 175.239 112.943 175.074 112.934 174.988C112.908 174.338 112.735 173.839 112.414 173.493C112.102 173.146 111.673 172.973 111.127 172.973C110.581 172.973 110.148 173.146 109.827 173.493C109.506 173.839 109.337 174.338 109.32 174.988L109.307 175.482L109.32 175.976C109.337 176.626 109.506 177.124 109.827 177.471C110.148 177.817 110.581 177.991 111.127 177.991ZM118.398 178.862C117.029 178.862 116.344 178.099 116.344 176.574V173.142H115.33C115.244 173.142 115.17 173.116 115.109 173.064C115.057 173.003 115.031 172.929 115.031 172.843V172.401C115.031 172.314 115.057 172.245 115.109 172.193C115.17 172.132 115.244 172.102 115.33 172.102H116.344V169.931C116.344 169.844 116.37 169.775 116.422 169.723C116.483 169.662 116.557 169.632 116.643 169.632H117.254C117.341 169.632 117.41 169.662 117.462 169.723C117.523 169.775 117.553 169.844 117.553 169.931V172.102H119.165C119.252 172.102 119.321 172.132 119.373 172.193C119.434 172.245 119.464 172.314 119.464 172.401V172.843C119.464 172.929 119.434 173.003 119.373 173.064C119.321 173.116 119.252 173.142 119.165 173.142H117.553V176.483C117.553 176.916 117.627 177.245 117.774 177.471C117.922 177.687 118.164 177.796 118.502 177.796H119.295C119.382 177.796 119.451 177.826 119.503 177.887C119.564 177.939 119.594 178.008 119.594 178.095V178.563C119.594 178.649 119.564 178.723 119.503 178.784C119.451 178.836 119.382 178.862 119.295 178.862H118.398ZM122.722 178.992C122.298 178.992 121.903 178.905 121.539 178.732C121.175 178.558 120.885 178.324 120.668 178.03C120.46 177.726 120.356 177.393 120.356 177.029C120.356 176.457 120.59 175.989 121.058 175.625C121.535 175.252 122.176 175.009 122.982 174.897L124.919 174.624V174.247C124.919 173.363 124.412 172.921 123.398 172.921C123.017 172.921 122.705 173.003 122.462 173.168C122.22 173.324 122.038 173.51 121.916 173.727C121.89 173.805 121.856 173.861 121.812 173.896C121.778 173.93 121.726 173.948 121.656 173.948H121.097C121.019 173.948 120.95 173.922 120.889 173.87C120.837 173.809 120.811 173.74 120.811 173.662C120.82 173.454 120.915 173.22 121.097 172.96C121.288 172.691 121.578 172.461 121.968 172.271C122.358 172.071 122.839 171.972 123.411 171.972C124.382 171.972 125.08 172.201 125.504 172.661C125.929 173.111 126.141 173.675 126.141 174.351V178.563C126.141 178.649 126.111 178.723 126.05 178.784C125.998 178.836 125.929 178.862 125.842 178.862H125.244C125.158 178.862 125.084 178.836 125.023 178.784C124.971 178.723 124.945 178.649 124.945 178.563V178.004C124.755 178.281 124.477 178.515 124.113 178.706C123.749 178.896 123.286 178.992 122.722 178.992ZM122.995 178.017C123.559 178.017 124.018 177.835 124.373 177.471C124.737 177.098 124.919 176.565 124.919 175.872V175.508L123.411 175.729C122.796 175.815 122.332 175.963 122.02 176.171C121.708 176.37 121.552 176.626 121.552 176.938C121.552 177.284 121.695 177.553 121.981 177.744C122.267 177.926 122.605 178.017 122.995 178.017ZM128.322 178.862C128.236 178.862 128.162 178.836 128.101 178.784C128.049 178.723 128.023 178.649 128.023 178.563V169.931C128.023 169.844 128.049 169.775 128.101 169.723C128.162 169.662 128.236 169.632 128.322 169.632H128.933C129.02 169.632 129.089 169.662 129.141 169.723C129.202 169.775 129.232 169.844 129.232 169.931V178.563C129.232 178.649 129.202 178.723 129.141 178.784C129.089 178.836 129.02 178.862 128.933 178.862H128.322ZM137.452 178.992C136.733 178.992 136.109 178.879 135.58 178.654C135.06 178.428 134.661 178.134 134.384 177.77C134.107 177.397 133.959 176.998 133.942 176.574C133.942 176.504 133.968 176.444 134.02 176.392C134.081 176.331 134.15 176.301 134.228 176.301H134.891C135.056 176.301 135.168 176.387 135.229 176.561C135.307 176.925 135.528 177.237 135.892 177.497C136.265 177.757 136.785 177.887 137.452 177.887C138.171 177.887 138.713 177.761 139.077 177.51C139.441 177.25 139.623 176.89 139.623 176.431C139.623 176.136 139.532 175.898 139.35 175.716C139.177 175.534 138.917 175.373 138.57 175.235C138.223 175.096 137.703 174.923 137.01 174.715C136.334 174.524 135.797 174.32 135.398 174.104C134.999 173.887 134.7 173.618 134.501 173.298C134.302 172.977 134.202 172.574 134.202 172.089C134.202 171.621 134.328 171.2 134.579 170.828C134.839 170.455 135.207 170.165 135.684 169.957C136.161 169.74 136.728 169.632 137.387 169.632C138.063 169.632 138.644 169.753 139.129 169.996C139.614 170.23 139.983 170.529 140.234 170.893C140.485 171.257 140.62 171.621 140.637 171.985C140.637 172.054 140.611 172.115 140.559 172.167C140.516 172.219 140.451 172.245 140.364 172.245H139.675C139.493 172.245 139.38 172.162 139.337 171.998C139.285 171.634 139.081 171.335 138.726 171.101C138.371 170.858 137.924 170.737 137.387 170.737C136.798 170.737 136.334 170.849 135.996 171.075C135.658 171.3 135.489 171.634 135.489 172.076C135.489 172.37 135.567 172.613 135.723 172.804C135.888 172.994 136.135 173.163 136.464 173.311C136.793 173.449 137.274 173.61 137.907 173.792C138.644 173.991 139.224 174.199 139.649 174.416C140.074 174.624 140.39 174.888 140.598 175.209C140.806 175.521 140.91 175.919 140.91 176.405C140.91 177.211 140.598 177.843 139.974 178.303C139.35 178.762 138.509 178.992 137.452 178.992ZM145.084 178.862C143.715 178.862 143.03 178.099 143.03 176.574V173.142H142.016C141.929 173.142 141.856 173.116 141.795 173.064C141.743 173.003 141.717 172.929 141.717 172.843V172.401C141.717 172.314 141.743 172.245 141.795 172.193C141.856 172.132 141.929 172.102 142.016 172.102H143.03V169.931C143.03 169.844 143.056 169.775 143.108 169.723C143.169 169.662 143.242 169.632 143.329 169.632H143.94C144.027 169.632 144.096 169.662 144.148 169.723C144.209 169.775 144.239 169.844 144.239 169.931V172.102H145.851C145.938 172.102 146.007 172.132 146.059 172.193C146.12 172.245 146.15 172.314 146.15 172.401V172.843C146.15 172.929 146.12 173.003 146.059 173.064C146.007 173.116 145.938 173.142 145.851 173.142H144.239V176.483C144.239 176.916 144.313 177.245 144.46 177.471C144.607 177.687 144.85 177.796 145.188 177.796H145.981C146.068 177.796 146.137 177.826 146.189 177.887C146.25 177.939 146.28 178.008 146.28 178.095V178.563C146.28 178.649 146.25 178.723 146.189 178.784C146.137 178.836 146.068 178.862 145.981 178.862H145.084ZM150.045 178.992C149.222 178.992 148.585 178.727 148.134 178.199C147.683 177.661 147.458 176.951 147.458 176.067V172.401C147.458 172.314 147.484 172.245 147.536 172.193C147.597 172.132 147.67 172.102 147.757 172.102H148.407C148.494 172.102 148.563 172.132 148.615 172.193C148.676 172.245 148.706 172.314 148.706 172.401V176.002C148.706 177.293 149.269 177.939 150.396 177.939C150.942 177.939 151.375 177.77 151.696 177.432C152.017 177.085 152.177 176.608 152.177 176.002V172.401C152.177 172.314 152.203 172.245 152.255 172.193C152.316 172.132 152.389 172.102 152.476 172.102H153.126C153.213 172.102 153.282 172.132 153.334 172.193C153.386 172.245 153.412 172.314 153.412 172.401V178.563C153.412 178.649 153.386 178.723 153.334 178.784C153.282 178.836 153.213 178.862 153.126 178.862H152.515C152.428 178.862 152.355 178.836 152.294 178.784C152.242 178.723 152.216 178.649 152.216 178.563V177.991C151.973 178.32 151.679 178.571 151.332 178.745C150.985 178.909 150.556 178.992 150.045 178.992ZM157.813 178.992C156.912 178.992 156.232 178.697 155.772 178.108C155.313 177.518 155.07 176.773 155.044 175.872L155.031 175.482L155.044 175.092C155.07 174.199 155.313 173.458 155.772 172.869C156.232 172.271 156.912 171.972 157.813 171.972C158.706 171.972 159.408 172.288 159.919 172.921V169.931C159.919 169.844 159.945 169.775 159.997 169.723C160.058 169.662 160.132 169.632 160.218 169.632H160.842C160.929 169.632 160.998 169.662 161.05 169.723C161.111 169.775 161.141 169.844 161.141 169.931V178.563C161.141 178.649 161.111 178.723 161.05 178.784C160.998 178.836 160.929 178.862 160.842 178.862H160.257C160.171 178.862 160.097 178.836 160.036 178.784C159.984 178.723 159.958 178.649 159.958 178.563V178.017C159.456 178.667 158.741 178.992 157.813 178.992ZM158.086 177.939C158.684 177.939 159.131 177.744 159.425 177.354C159.729 176.955 159.893 176.483 159.919 175.937C159.928 175.841 159.932 175.677 159.932 175.443C159.932 175.2 159.928 175.031 159.919 174.936C159.902 174.424 159.737 173.978 159.425 173.597C159.113 173.215 158.667 173.025 158.086 173.025C157.471 173.025 157.02 173.215 156.734 173.597C156.457 173.978 156.305 174.481 156.279 175.105L156.266 175.482C156.266 177.12 156.873 177.939 158.086 177.939ZM165.779 178.992C164.886 178.992 164.171 178.719 163.634 178.173C163.105 177.618 162.815 176.864 162.763 175.911L162.75 175.469L162.763 175.04C162.823 174.104 163.118 173.358 163.647 172.804C164.184 172.249 164.89 171.972 165.766 171.972C166.728 171.972 167.473 172.279 168.002 172.895C168.53 173.501 168.795 174.325 168.795 175.365V175.586C168.795 175.672 168.764 175.746 168.704 175.807C168.652 175.859 168.582 175.885 168.496 175.885H163.998V176.002C164.024 176.565 164.193 177.046 164.505 177.445C164.825 177.835 165.246 178.03 165.766 178.03C166.164 178.03 166.489 177.952 166.741 177.796C167.001 177.631 167.191 177.462 167.313 177.289C167.391 177.185 167.447 177.124 167.482 177.107C167.525 177.081 167.599 177.068 167.703 177.068H168.34C168.418 177.068 168.483 177.089 168.535 177.133C168.587 177.176 168.613 177.237 168.613 177.315C168.613 177.505 168.491 177.735 168.249 178.004C168.015 178.272 167.681 178.506 167.248 178.706C166.823 178.896 166.333 178.992 165.779 178.992ZM167.56 174.988V174.949C167.56 174.351 167.395 173.865 167.066 173.493C166.745 173.111 166.312 172.921 165.766 172.921C165.22 172.921 164.786 173.111 164.466 173.493C164.154 173.865 163.998 174.351 163.998 174.949V174.988H167.56ZM170.648 178.862C170.562 178.862 170.488 178.836 170.427 178.784C170.375 178.723 170.349 178.649 170.349 178.563V172.401C170.349 172.314 170.375 172.245 170.427 172.193C170.488 172.132 170.562 172.102 170.648 172.102H171.259C171.346 172.102 171.415 172.132 171.467 172.193C171.528 172.245 171.558 172.314 171.558 172.401V172.973C171.81 172.652 172.104 172.405 172.442 172.232C172.789 172.058 173.218 171.972 173.729 171.972C174.561 171.972 175.207 172.24 175.666 172.778C176.134 173.306 176.368 174.013 176.368 174.897V178.563C176.368 178.649 176.338 178.723 176.277 178.784C176.225 178.836 176.156 178.862 176.069 178.862H175.419C175.333 178.862 175.259 178.836 175.198 178.784C175.146 178.723 175.12 178.649 175.12 178.563V174.962C175.12 174.346 174.969 173.87 174.665 173.532C174.371 173.194 173.942 173.025 173.378 173.025C172.832 173.025 172.399 173.198 172.078 173.545C171.758 173.883 171.597 174.355 171.597 174.962V178.563C171.597 178.649 171.567 178.723 171.506 178.784C171.454 178.836 171.385 178.862 171.298 178.862H170.648ZM180.783 178.862C179.414 178.862 178.729 178.099 178.729 176.574V173.142H177.715C177.628 173.142 177.555 173.116 177.494 173.064C177.442 173.003 177.416 172.929 177.416 172.843V172.401C177.416 172.314 177.442 172.245 177.494 172.193C177.555 172.132 177.628 172.102 177.715 172.102H178.729V169.931C178.729 169.844 178.755 169.775 178.807 169.723C178.868 169.662 178.941 169.632 179.028 169.632H179.639C179.726 169.632 179.795 169.662 179.847 169.723C179.908 169.775 179.938 169.844 179.938 169.931V172.102H181.55C181.637 172.102 181.706 172.132 181.758 172.193C181.819 172.245 181.849 172.314 181.849 172.401V172.843C181.849 172.929 181.819 173.003 181.758 173.064C181.706 173.116 181.637 173.142 181.55 173.142H179.938V176.483C179.938 176.916 180.012 177.245 180.159 177.471C180.306 177.687 180.549 177.796 180.887 177.796H181.68C181.767 177.796 181.836 177.826 181.888 177.887C181.949 177.939 181.979 178.008 181.979 178.095V178.563C181.979 178.649 181.949 178.723 181.888 178.784C181.836 178.836 181.767 178.862 181.68 178.862H180.783ZM185.562 178.992C184.956 178.992 184.444 178.896 184.028 178.706C183.621 178.506 183.313 178.281 183.105 178.03C182.906 177.778 182.806 177.57 182.806 177.406C182.806 177.319 182.837 177.254 182.897 177.211C182.967 177.159 183.036 177.133 183.105 177.133H183.69C183.777 177.133 183.855 177.176 183.924 177.263C184.132 177.505 184.358 177.696 184.6 177.835C184.843 177.973 185.168 178.043 185.575 178.043C186.026 178.043 186.39 177.956 186.667 177.783C186.953 177.601 187.096 177.354 187.096 177.042C187.096 176.834 187.036 176.665 186.914 176.535C186.802 176.396 186.602 176.279 186.316 176.184C186.039 176.08 185.623 175.967 185.068 175.846C184.314 175.681 183.777 175.443 183.456 175.131C183.144 174.819 182.988 174.416 182.988 173.922C182.988 173.592 183.084 173.28 183.274 172.986C183.474 172.682 183.76 172.44 184.132 172.258C184.514 172.067 184.969 171.972 185.497 171.972C186.052 171.972 186.524 172.063 186.914 172.245C187.304 172.427 187.595 172.643 187.785 172.895C187.985 173.137 188.084 173.341 188.084 173.506C188.084 173.584 188.054 173.649 187.993 173.701C187.941 173.753 187.876 173.779 187.798 173.779H187.252C187.148 173.779 187.062 173.735 186.992 173.649C186.854 173.484 186.732 173.358 186.628 173.272C186.533 173.176 186.39 173.094 186.199 173.025C186.017 172.955 185.783 172.921 185.497 172.921C185.081 172.921 184.761 173.012 184.535 173.194C184.31 173.367 184.197 173.597 184.197 173.883C184.197 174.065 184.245 174.221 184.34 174.351C184.436 174.472 184.618 174.585 184.886 174.689C185.164 174.793 185.562 174.901 186.082 175.014C186.906 175.187 187.486 175.438 187.824 175.768C188.171 176.088 188.344 176.5 188.344 177.003C188.344 177.375 188.236 177.713 188.019 178.017C187.803 178.32 187.482 178.558 187.057 178.732C186.641 178.905 186.143 178.992 185.562 178.992Z" fill="#9B9B9B"/>
<g filter="url(#filter0_dd)">
<circle cx="101.336" cy="72.3359" r="40.3369" fill="white"/>
</g>
<path d="M89.0879 81.109C88.1272 81.109 87.3829 80.8597 86.8549 80.361C86.3342 79.855 86.0592 79.096 86.0299 78.084C86.0226 77.864 86.0189 77.5524 86.0189 77.149C86.0189 76.7457 86.0226 76.4377 86.0299 76.225C86.0592 75.235 86.3452 74.4834 86.8879 73.97C87.4306 73.4494 88.1639 73.189 89.0879 73.189C90.0046 73.189 90.7342 73.4494 91.2769 73.97C91.8196 74.4834 92.1056 75.235 92.1349 76.225C92.1496 76.6504 92.1569 76.9584 92.1569 77.149C92.1569 77.3324 92.1496 77.644 92.1349 78.084C92.1056 79.096 91.8269 79.855 91.2989 80.361C90.7782 80.8597 90.0412 81.109 89.0879 81.109ZM89.0879 80.174C89.6672 80.174 90.1292 79.998 90.4739 79.646C90.8186 79.294 91.0056 78.755 91.0349 78.029C91.0496 77.589 91.0569 77.2957 91.0569 77.149C91.0569 76.9877 91.0496 76.6944 91.0349 76.269C91.0056 75.543 90.8149 75.004 90.4629 74.652C90.1182 74.3 89.6599 74.124 89.0879 74.124C88.5086 74.124 88.0429 74.3 87.6909 74.652C87.3462 75.004 87.1592 75.543 87.1299 76.269C87.1226 76.4817 87.1189 76.775 87.1189 77.149C87.1189 77.5157 87.1226 77.809 87.1299 78.029C87.1592 78.755 87.3462 79.294 87.6909 79.646C88.0429 79.998 88.5086 80.174 89.0879 80.174ZM93.8702 80.999C93.7969 80.999 93.7346 80.977 93.6832 80.933C93.6392 80.8817 93.6172 80.8194 93.6172 80.746V75.532C93.6172 75.4587 93.6392 75.4 93.6832 75.356C93.7346 75.3047 93.7969 75.279 93.8702 75.279H94.3872C94.4606 75.279 94.5192 75.3047 94.5632 75.356C94.6146 75.4 94.6402 75.4587 94.6402 75.532V76.016C94.8529 75.7447 95.1022 75.5357 95.3882 75.389C95.6816 75.2424 96.0446 75.169 96.4772 75.169C97.1812 75.169 97.7276 75.3964 98.1162 75.851C98.5122 76.2984 98.7102 76.896 98.7102 77.644V80.746C98.7102 80.8194 98.6846 80.8817 98.6332 80.933C98.5892 80.977 98.5306 80.999 98.4572 80.999H97.9072C97.8339 80.999 97.7716 80.977 97.7202 80.933C97.6762 80.8817 97.6542 80.8194 97.6542 80.746V77.699C97.6542 77.1784 97.5259 76.775 97.2692 76.489C97.0199 76.203 96.6569 76.06 96.1802 76.06C95.7182 76.06 95.3516 76.2067 95.0802 76.5C94.8089 76.786 94.6732 77.1857 94.6732 77.699V80.746C94.6732 80.8194 94.6476 80.8817 94.5962 80.933C94.5522 80.977 94.4936 80.999 94.4202 80.999H93.8702ZM100.552 80.999C100.479 80.999 100.416 80.977 100.365 80.933C100.321 80.8817 100.299 80.8194 100.299 80.746V73.442C100.299 73.3687 100.321 73.31 100.365 73.266C100.416 73.2147 100.479 73.189 100.552 73.189H101.069C101.142 73.189 101.201 73.2147 101.245 73.266C101.296 73.31 101.322 73.3687 101.322 73.442V80.746C101.322 80.8194 101.296 80.8817 101.245 80.933C101.201 80.977 101.142 80.999 101.069 80.999H100.552ZM103.128 74.212C103.055 74.212 102.992 74.19 102.941 74.146C102.897 74.0947 102.875 74.0324 102.875 73.959V73.365C102.875 73.2917 102.897 73.2294 102.941 73.178C102.992 73.1267 103.055 73.101 103.128 73.101H103.821C103.894 73.101 103.957 73.1267 104.008 73.178C104.059 73.2294 104.085 73.2917 104.085 73.365V73.959C104.085 74.0324 104.059 74.0947 104.008 74.146C103.957 74.19 103.894 74.212 103.821 74.212H103.128ZM103.216 80.999C103.143 80.999 103.08 80.977 103.029 80.933C102.985 80.8817 102.963 80.8194 102.963 80.746V75.532C102.963 75.4587 102.985 75.4 103.029 75.356C103.08 75.3047 103.143 75.279 103.216 75.279H103.744C103.817 75.279 103.876 75.3047 103.92 75.356C103.971 75.4 103.997 75.4587 103.997 75.532V80.746C103.997 80.8194 103.971 80.8817 103.92 80.933C103.876 80.977 103.817 80.999 103.744 80.999H103.216ZM105.88 80.999C105.807 80.999 105.744 80.977 105.693 80.933C105.649 80.8817 105.627 80.8194 105.627 80.746V75.532C105.627 75.4587 105.649 75.4 105.693 75.356C105.744 75.3047 105.807 75.279 105.88 75.279H106.397C106.47 75.279 106.529 75.3047 106.573 75.356C106.624 75.4 106.65 75.4587 106.65 75.532V76.016C106.863 75.7447 107.112 75.5357 107.398 75.389C107.691 75.2424 108.054 75.169 108.487 75.169C109.191 75.169 109.737 75.3964 110.126 75.851C110.522 76.2984 110.72 76.896 110.72 77.644V80.746C110.72 80.8194 110.694 80.8817 110.643 80.933C110.599 80.977 110.54 80.999 110.467 80.999H109.917C109.844 80.999 109.781 80.977 109.73 80.933C109.686 80.8817 109.664 80.8194 109.664 80.746V77.699C109.664 77.1784 109.536 76.775 109.279 76.489C109.03 76.203 108.667 76.06 108.19 76.06C107.728 76.06 107.361 76.2067 107.09 76.5C106.819 76.786 106.683 77.1857 106.683 77.699V80.746C106.683 80.8194 106.657 80.8817 106.606 80.933C106.562 80.977 106.503 80.999 106.43 80.999H105.88ZM114.586 81.109C113.831 81.109 113.226 80.878 112.771 80.416C112.324 79.9467 112.078 79.3087 112.034 78.502L112.023 78.128L112.034 77.765C112.085 76.973 112.335 76.3424 112.782 75.873C113.237 75.4037 113.834 75.169 114.575 75.169C115.389 75.169 116.02 75.4294 116.467 75.95C116.914 76.4634 117.138 77.16 117.138 78.04V78.227C117.138 78.3004 117.112 78.3627 117.061 78.414C117.017 78.458 116.958 78.48 116.885 78.48H113.079V78.579C113.101 79.0557 113.244 79.4627 113.508 79.8C113.779 80.13 114.135 80.295 114.575 80.295C114.912 80.295 115.187 80.229 115.4 80.097C115.62 79.9577 115.781 79.8147 115.884 79.668C115.95 79.58 115.998 79.5287 116.027 79.514C116.064 79.492 116.126 79.481 116.214 79.481H116.753C116.819 79.481 116.874 79.4994 116.918 79.536C116.962 79.5727 116.984 79.624 116.984 79.69C116.984 79.8514 116.881 80.0457 116.676 80.273C116.478 80.5004 116.196 80.6984 115.829 80.867C115.47 81.0284 115.055 81.109 114.586 81.109ZM116.093 77.721V77.688C116.093 77.182 115.954 76.7714 115.675 76.456C115.404 76.1334 115.037 75.972 114.575 75.972C114.113 75.972 113.746 76.1334 113.475 76.456C113.211 76.7714 113.079 77.182 113.079 77.688V77.721H116.093ZM81.454 94.109C80.8453 94.109 80.3173 94.0137 79.87 93.823C79.43 93.6324 79.0926 93.383 78.858 93.075C78.6233 92.7597 78.4986 92.4224 78.484 92.063C78.484 92.0044 78.506 91.953 78.55 91.909C78.6013 91.8577 78.66 91.832 78.726 91.832H79.287C79.4263 91.832 79.5216 91.9054 79.573 92.052C79.639 92.36 79.826 92.624 80.134 92.844C80.4493 93.064 80.8893 93.174 81.454 93.174C82.0626 93.174 82.521 93.0677 82.829 92.855C83.137 92.635 83.291 92.3307 83.291 91.942C83.291 91.6927 83.214 91.491 83.06 91.337C82.9133 91.183 82.6933 91.0474 82.4 90.93C82.1066 90.8127 81.6666 90.666 81.08 90.49C80.508 90.3287 80.0533 90.1564 79.716 89.973C79.3786 89.7897 79.1256 89.5624 78.957 89.291C78.7883 89.0197 78.704 88.6787 78.704 88.268C78.704 87.872 78.8103 87.5164 79.023 87.201C79.243 86.8857 79.5546 86.64 79.958 86.464C80.3613 86.2807 80.8416 86.189 81.399 86.189C81.971 86.189 82.4623 86.2917 82.873 86.497C83.2836 86.695 83.5953 86.948 83.808 87.256C84.0206 87.564 84.1343 87.872 84.149 88.18C84.149 88.2387 84.127 88.29 84.083 88.334C84.0463 88.378 83.9913 88.4 83.918 88.4H83.335C83.181 88.4 83.0856 88.3304 83.049 88.191C83.005 87.883 82.8326 87.63 82.532 87.432C82.2313 87.2267 81.8536 87.124 81.399 87.124C80.9003 87.124 80.508 87.2194 80.222 87.41C79.936 87.6007 79.793 87.883 79.793 88.257C79.793 88.5064 79.859 88.7117 79.991 88.873C80.1303 89.0344 80.3393 89.1774 80.618 89.302C80.8966 89.4194 81.3036 89.555 81.839 89.709C82.4623 89.8777 82.9536 90.0537 83.313 90.237C83.6723 90.413 83.94 90.6367 84.116 90.908C84.292 91.172 84.38 91.5094 84.38 91.92C84.38 92.602 84.116 93.1374 83.588 93.526C83.06 93.9147 82.3486 94.109 81.454 94.109ZM87.9117 93.999C86.7531 93.999 86.1737 93.3537 86.1737 92.063V89.159H85.3157C85.2424 89.159 85.1801 89.137 85.1287 89.093C85.0847 89.0417 85.0627 88.9794 85.0627 88.906V88.532C85.0627 88.4587 85.0847 88.4 85.1287 88.356C85.1801 88.3047 85.2424 88.279 85.3157 88.279H86.1737V86.442C86.1737 86.3687 86.1957 86.31 86.2397 86.266C86.2911 86.2147 86.3534 86.189 86.4267 86.189H86.9437C87.0171 86.189 87.0757 86.2147 87.1197 86.266C87.1711 86.31 87.1967 86.3687 87.1967 86.442V88.279H88.5607C88.6341 88.279 88.6927 88.3047 88.7367 88.356C88.7881 88.4 88.8137 88.4587 88.8137 88.532V88.906C88.8137 88.9794 88.7881 89.0417 88.7367 89.093C88.6927 89.137 88.6341 89.159 88.5607 89.159H87.1967V91.986C87.1967 92.3527 87.2591 92.6314 87.3837 92.822C87.5084 93.0054 87.7137 93.097 87.9997 93.097H88.6707C88.7441 93.097 88.8027 93.1227 88.8467 93.174C88.8981 93.218 88.9237 93.2767 88.9237 93.35V93.746C88.9237 93.8194 88.8981 93.8817 88.8467 93.933C88.8027 93.977 88.7441 93.999 88.6707 93.999H87.9117ZM92.1096 94.109C91.413 94.109 90.874 93.8854 90.4926 93.438C90.1113 92.9834 89.9206 92.382 89.9206 91.634V88.532C89.9206 88.4587 89.9426 88.4 89.9866 88.356C90.038 88.3047 90.1003 88.279 90.1736 88.279H90.7236C90.797 88.279 90.8556 88.3047 90.8996 88.356C90.951 88.4 90.9766 88.4587 90.9766 88.532V91.579C90.9766 92.6717 91.4533 93.218 92.4066 93.218C92.8686 93.218 93.2353 93.075 93.5066 92.789C93.778 92.4957 93.9136 92.0924 93.9136 91.579V88.532C93.9136 88.4587 93.9356 88.4 93.9796 88.356C94.031 88.3047 94.0933 88.279 94.1666 88.279H94.7166C94.79 88.279 94.8486 88.3047 94.8926 88.356C94.9366 88.4 94.9586 88.4587 94.9586 88.532V93.746C94.9586 93.8194 94.9366 93.8817 94.8926 93.933C94.8486 93.977 94.79 93.999 94.7166 93.999H94.1996C94.1263 93.999 94.064 93.977 94.0126 93.933C93.9686 93.8817 93.9466 93.8194 93.9466 93.746V93.262C93.7413 93.5407 93.492 93.7534 93.1986 93.9C92.9053 94.0394 92.5423 94.109 92.1096 94.109ZM98.6828 94.109C97.9201 94.109 97.3445 93.8597 96.9558 93.361C96.5671 92.8624 96.3618 92.2317 96.3398 91.469L96.3288 91.139L96.3398 90.809C96.3618 90.0537 96.5671 89.4267 96.9558 88.928C97.3445 88.422 97.9201 88.169 98.6828 88.169C99.4381 88.169 100.032 88.4367 100.465 88.972V86.442C100.465 86.3687 100.487 86.31 100.531 86.266C100.582 86.2147 100.644 86.189 100.718 86.189H101.246C101.319 86.189 101.378 86.2147 101.422 86.266C101.473 86.31 101.499 86.3687 101.499 86.442V93.746C101.499 93.8194 101.473 93.8817 101.422 93.933C101.378 93.977 101.319 93.999 101.246 93.999H100.751C100.677 93.999 100.615 93.977 100.564 93.933C100.52 93.8817 100.498 93.8194 100.498 93.746V93.284C100.072 93.834 99.4675 94.109 98.6828 94.109ZM98.9138 93.218C99.4198 93.218 99.7975 93.053 100.047 92.723C100.303 92.3857 100.443 91.986 100.465 91.524C100.472 91.4434 100.476 91.304 100.476 91.106C100.476 90.9007 100.472 90.7577 100.465 90.677C100.45 90.2444 100.311 89.8667 100.047 89.544C99.7828 89.2214 99.4051 89.06 98.9138 89.06C98.3931 89.06 98.0118 89.2214 97.7698 89.544C97.5351 89.8667 97.4068 90.292 97.3848 90.82L97.3738 91.139C97.3738 92.525 97.8871 93.218 98.9138 93.218ZM105.423 94.109C104.667 94.109 104.062 93.878 103.608 93.416C103.16 92.9467 102.915 92.3087 102.871 91.502L102.86 91.128L102.871 90.765C102.922 89.973 103.171 89.3424 103.619 88.873C104.073 88.4037 104.671 88.169 105.412 88.169C106.226 88.169 106.856 88.4294 107.304 88.95C107.751 89.4634 107.975 90.16 107.975 91.04V91.227C107.975 91.3004 107.949 91.3627 107.898 91.414C107.854 91.458 107.795 91.48 107.722 91.48H103.916V91.579C103.938 92.0557 104.081 92.4627 104.345 92.8C104.616 93.13 104.972 93.295 105.412 93.295C105.749 93.295 106.024 93.229 106.237 93.097C106.457 92.9577 106.618 92.8147 106.721 92.668C106.787 92.58 106.834 92.5287 106.864 92.514C106.9 92.492 106.963 92.481 107.051 92.481H107.59C107.656 92.481 107.711 92.4994 107.755 92.536C107.799 92.5727 107.821 92.624 107.821 92.69C107.821 92.8514 107.718 93.0457 107.513 93.273C107.315 93.5004 107.032 93.6984 106.666 93.867C106.306 94.0284 105.892 94.109 105.423 94.109ZM106.93 90.721V90.688C106.93 90.182 106.79 89.7714 106.512 89.456C106.24 89.1334 105.874 88.972 105.412 88.972C104.95 88.972 104.583 89.1334 104.312 89.456C104.048 89.7714 103.916 90.182 103.916 90.688V90.721H106.93ZM109.543 93.999C109.47 93.999 109.407 93.977 109.356 93.933C109.312 93.8817 109.29 93.8194 109.29 93.746V88.532C109.29 88.4587 109.312 88.4 109.356 88.356C109.407 88.3047 109.47 88.279 109.543 88.279H110.06C110.133 88.279 110.192 88.3047 110.236 88.356C110.287 88.4 110.313 88.4587 110.313 88.532V89.016C110.526 88.7447 110.775 88.5357 111.061 88.389C111.354 88.2424 111.717 88.169 112.15 88.169C112.854 88.169 113.4 88.3964 113.789 88.851C114.185 89.2984 114.383 89.896 114.383 90.644V93.746C114.383 93.8194 114.357 93.8817 114.306 93.933C114.262 93.977 114.203 93.999 114.13 93.999H113.58C113.507 93.999 113.444 93.977 113.393 93.933C113.349 93.8817 113.327 93.8194 113.327 93.746V90.699C113.327 90.1784 113.199 89.775 112.942 89.489C112.693 89.203 112.33 89.06 111.853 89.06C111.391 89.06 111.024 89.2067 110.753 89.5C110.482 89.786 110.346 90.1857 110.346 90.699V93.746C110.346 93.8194 110.32 93.8817 110.269 93.933C110.225 93.977 110.166 93.999 110.093 93.999H109.543ZM118.119 93.999C116.96 93.999 116.381 93.3537 116.381 92.063V89.159H115.523C115.449 89.159 115.387 89.137 115.336 89.093C115.292 89.0417 115.27 88.9794 115.27 88.906V88.532C115.27 88.4587 115.292 88.4 115.336 88.356C115.387 88.3047 115.449 88.279 115.523 88.279H116.381V86.442C116.381 86.3687 116.403 86.31 116.447 86.266C116.498 86.2147 116.56 86.189 116.634 86.189H117.151C117.224 86.189 117.283 86.2147 117.327 86.266C117.378 86.31 117.404 86.3687 117.404 86.442V88.279H118.768C118.841 88.279 118.9 88.3047 118.944 88.356C118.995 88.4 119.021 88.4587 119.021 88.532V88.906C119.021 88.9794 118.995 89.0417 118.944 89.093C118.9 89.137 118.841 89.159 118.768 89.159H117.404V91.986C117.404 92.3527 117.466 92.6314 117.591 92.822C117.715 93.0054 117.921 93.097 118.207 93.097H118.878C118.951 93.097 119.01 93.1227 119.054 93.174C119.105 93.218 119.131 93.2767 119.131 93.35V93.746C119.131 93.8194 119.105 93.8817 119.054 93.933C119.01 93.977 118.951 93.999 118.878 93.999H118.119ZM122.163 94.109C121.649 94.109 121.217 94.0284 120.865 93.867C120.52 93.6984 120.26 93.5077 120.084 93.295C119.915 93.0824 119.831 92.9064 119.831 92.767C119.831 92.6937 119.856 92.6387 119.908 92.602C119.966 92.558 120.025 92.536 120.084 92.536H120.579C120.652 92.536 120.718 92.5727 120.777 92.646C120.953 92.8514 121.143 93.0127 121.349 93.13C121.554 93.2474 121.829 93.306 122.174 93.306C122.555 93.306 122.863 93.2327 123.098 93.086C123.34 92.932 123.461 92.723 123.461 92.459C123.461 92.283 123.409 92.14 123.307 92.03C123.211 91.9127 123.043 91.8137 122.801 91.733C122.566 91.645 122.214 91.5497 121.745 91.447C121.107 91.3077 120.652 91.106 120.381 90.842C120.117 90.578 119.985 90.237 119.985 89.819C119.985 89.5404 120.065 89.2764 120.227 89.027C120.395 88.7704 120.637 88.565 120.953 88.411C121.275 88.2497 121.66 88.169 122.108 88.169C122.577 88.169 122.977 88.246 123.307 88.4C123.637 88.554 123.882 88.7374 124.044 88.95C124.212 89.1554 124.297 89.3277 124.297 89.467C124.297 89.533 124.271 89.588 124.22 89.632C124.176 89.676 124.121 89.698 124.055 89.698H123.593C123.505 89.698 123.431 89.6614 123.373 89.588C123.255 89.4487 123.153 89.3424 123.065 89.269C122.984 89.1884 122.863 89.1187 122.702 89.06C122.548 89.0014 122.35 88.972 122.108 88.972C121.756 88.972 121.484 89.049 121.294 89.203C121.103 89.3497 121.008 89.544 121.008 89.786C121.008 89.94 121.048 90.072 121.129 90.182C121.209 90.2847 121.363 90.38 121.591 90.468C121.825 90.556 122.163 90.6477 122.603 90.743C123.299 90.8897 123.791 91.1024 124.077 91.381C124.37 91.6524 124.517 92.0007 124.517 92.426C124.517 92.7414 124.425 93.0274 124.242 93.284C124.058 93.5407 123.787 93.7424 123.428 93.889C123.076 94.0357 122.654 94.109 122.163 94.109Z" fill="#808080"/>
<path d="M77.9854 64.999C77.872 64.999 77.7757 64.9594 77.6964 64.88C77.617 64.8007 77.5774 64.7044 77.5774 64.591V55.785L74.9934 57.774C74.9254 57.8307 74.846 57.859 74.7554 57.859C74.6194 57.859 74.506 57.7967 74.4154 57.672L73.7014 56.754C73.6447 56.6634 73.6164 56.5784 73.6164 56.499C73.6164 56.363 73.6787 56.2497 73.8034 56.159L77.6114 53.218C77.7134 53.1387 77.855 53.099 78.0364 53.099H79.5324C79.657 53.099 79.7534 53.1387 79.8214 53.218C79.9007 53.286 79.9404 53.3824 79.9404 53.507V64.591C79.9404 64.7044 79.9007 64.8007 79.8214 64.88C79.7534 64.9594 79.657 64.999 79.5324 64.999H77.9854ZM84.2735 64.999C84.1715 64.999 84.0865 64.965 84.0185 64.897C83.9505 64.8177 83.9165 64.727 83.9165 64.625C83.9165 64.5457 83.9392 64.472 83.9845 64.404L86.4835 60.953C86.2342 61.0097 86.0018 61.0324 85.7865 61.021C85.0272 60.9984 84.3358 60.8114 83.7125 60.46C83.0892 60.1087 82.5962 59.6327 82.2335 59.032C81.8822 58.4314 81.7065 57.774 81.7065 57.06C81.7065 56.346 81.8822 55.6774 82.2335 55.054C82.5848 54.4194 83.1062 53.9094 83.7975 53.524C84.4888 53.1274 85.3218 52.929 86.2965 52.929C87.2712 52.929 88.1098 53.116 88.8125 53.49C89.5152 53.8527 90.0422 54.3457 90.3935 54.969C90.7562 55.581 90.9375 56.2554 90.9375 56.992C90.9375 57.4454 90.8638 57.876 90.7165 58.284C90.5692 58.692 90.3992 59.049 90.2065 59.355C90.0252 59.6497 89.7645 60.035 89.4245 60.511L86.4325 64.659C86.3645 64.761 86.2852 64.846 86.1945 64.914C86.1152 64.9707 86.0018 64.999 85.8545 64.999H84.2735ZM86.3135 59.219C86.9368 59.219 87.4582 59.0264 87.8775 58.641C88.3082 58.2444 88.5235 57.7174 88.5235 57.06C88.5235 56.4027 88.3082 55.8757 87.8775 55.479C87.4582 55.0824 86.9368 54.884 86.3135 54.884C85.6902 54.884 85.1632 55.0824 84.7325 55.479C84.3132 55.8757 84.1035 56.4027 84.1035 57.06C84.1035 57.7174 84.3132 58.2444 84.7325 58.641C85.1518 59.0264 85.6788 59.219 86.3135 59.219ZM92.0862 64.999C91.9729 64.999 91.8765 64.9594 91.7972 64.88C91.7179 64.8007 91.6782 64.7044 91.6782 64.591V62.908C91.6782 62.7947 91.7179 62.6984 91.7972 62.619C91.8765 62.5284 91.9729 62.483 92.0862 62.483H93.7862C93.8995 62.483 93.9959 62.5284 94.0752 62.619C94.1545 62.6984 94.1942 62.7947 94.1942 62.908V64.591C94.1942 64.7044 94.1545 64.8007 94.0752 64.88C93.9959 64.9594 93.8995 64.999 93.7862 64.999H92.0862ZM96.38 64.999C96.2667 64.999 96.1704 64.9594 96.091 64.88C96.0117 64.8007 95.972 64.7044 95.972 64.591V63.724C95.972 63.418 96.1137 63.1517 96.397 62.925L99.083 60.256C100.25 59.338 101.061 58.624 101.514 58.114C101.979 57.5927 102.211 57.0827 102.211 56.584C102.211 56.0514 102.064 55.632 101.769 55.326C101.486 55.02 101.055 54.867 100.477 54.867C99.9104 54.867 99.4627 55.037 99.134 55.377C98.8054 55.7057 98.6014 56.1364 98.522 56.669C98.488 56.805 98.4257 56.907 98.335 56.975C98.2444 57.0317 98.1424 57.06 98.029 57.06H96.516C96.414 57.06 96.329 57.026 96.261 56.958C96.193 56.89 96.159 56.8107 96.159 56.72C96.1817 56.0514 96.363 55.428 96.703 54.85C97.043 54.2607 97.536 53.7904 98.182 53.439C98.828 53.0764 99.5874 52.895 100.46 52.895C101.367 52.895 102.132 53.0537 102.755 53.371C103.39 53.677 103.866 54.102 104.183 54.646C104.5 55.19 104.659 55.8077 104.659 56.499C104.659 57.2584 104.444 57.944 104.013 58.556C103.594 59.168 102.948 59.8254 102.075 60.528L99.661 62.976H104.506C104.631 62.976 104.727 63.0157 104.795 63.095C104.874 63.163 104.914 63.2594 104.914 63.384V64.591C104.914 64.7044 104.874 64.8007 104.795 64.88C104.727 64.9594 104.631 64.999 104.506 64.999H96.38ZM111.155 65.169C110.203 65.169 109.37 64.9877 108.656 64.625C107.942 64.2624 107.393 63.7694 107.007 63.146C106.622 62.5114 106.429 61.7974 106.429 61.004C106.429 59.9954 106.866 58.896 107.738 57.706L110.849 53.439C110.917 53.337 110.991 53.2577 111.07 53.201C111.161 53.133 111.28 53.099 111.427 53.099H113.008C113.11 53.099 113.195 53.1387 113.263 53.218C113.331 53.286 113.365 53.371 113.365 53.473C113.365 53.5297 113.337 53.6034 113.28 53.694L110.9 56.992C111.127 56.9354 111.371 56.907 111.631 56.907C112.391 56.9297 113.088 57.1224 113.722 57.485C114.368 57.8364 114.878 58.318 115.252 58.93C115.638 59.542 115.83 60.222 115.83 60.97C115.83 61.7294 115.638 62.432 115.252 63.078C114.878 63.7127 114.334 64.2227 113.62 64.608C112.918 64.982 112.096 65.169 111.155 65.169ZM111.138 63.214C111.784 63.214 112.328 63.0214 112.77 62.636C113.212 62.2394 113.433 61.6897 113.433 60.987C113.433 60.2957 113.212 59.7574 112.77 59.372C112.328 58.9754 111.784 58.777 111.138 58.777C110.492 58.777 109.948 58.9754 109.506 59.372C109.064 59.7574 108.843 60.2957 108.843 60.987C108.843 61.6897 109.064 62.2394 109.506 62.636C109.948 63.0214 110.492 63.214 111.138 63.214ZM119.655 59.083C118.907 59.083 118.306 58.8847 117.853 58.488C117.411 58.0914 117.167 57.553 117.122 56.873C117.11 56.6804 117.105 56.4254 117.105 56.108C117.105 55.768 117.11 55.496 117.122 55.292C117.167 54.5894 117.405 54.034 117.836 53.626C118.266 53.218 118.873 53.014 119.655 53.014C120.437 53.014 121.043 53.218 121.474 53.626C121.916 54.034 122.154 54.5894 122.188 55.292C122.21 55.7454 122.222 56.04 122.222 56.176C122.222 56.3007 122.21 56.533 122.188 56.873C122.154 57.553 121.91 58.0914 121.457 58.488C121.015 58.8847 120.414 59.083 119.655 59.083ZM118.261 64.999C118.159 64.999 118.074 64.9707 118.006 64.914C117.938 64.846 117.904 64.761 117.904 64.659C117.904 64.591 117.926 64.5287 117.972 64.472L126.353 53.422C126.443 53.3087 126.528 53.2294 126.608 53.184C126.687 53.1274 126.795 53.099 126.931 53.099H127.832C127.945 53.099 128.03 53.133 128.087 53.201C128.155 53.2577 128.189 53.337 128.189 53.439C128.189 53.507 128.166 53.5694 128.121 53.626L119.74 64.676C119.649 64.7894 119.564 64.8744 119.485 64.931C119.405 64.9764 119.298 64.999 119.162 64.999H118.261ZM119.655 57.825C119.983 57.825 120.227 57.7287 120.386 57.536C120.544 57.332 120.635 57.0827 120.658 56.788C120.68 56.4027 120.692 56.1647 120.692 56.074C120.692 55.9494 120.68 55.717 120.658 55.377C120.646 55.0824 120.556 54.8387 120.386 54.646C120.227 54.442 119.983 54.34 119.655 54.34C119.326 54.34 119.082 54.442 118.924 54.646C118.765 54.8387 118.68 55.0824 118.669 55.377C118.657 55.547 118.652 55.7794 118.652 56.074C118.652 56.3574 118.657 56.5954 118.669 56.788C118.691 57.0827 118.776 57.332 118.924 57.536C119.082 57.7287 119.326 57.825 119.655 57.825ZM126.438 65.101C125.69 65.101 125.089 64.897 124.636 64.489C124.194 64.0697 123.95 63.5144 123.905 62.823C123.893 62.6304 123.888 62.3754 123.888 62.058C123.888 61.7294 123.893 61.463 123.905 61.259C123.95 60.5564 124.188 60.001 124.619 59.593C125.049 59.185 125.656 58.981 126.438 58.981C127.22 58.981 127.826 59.185 128.257 59.593C128.699 60.001 128.937 60.5564 128.971 61.259C128.993 61.7124 129.005 62.0014 129.005 62.126C129.005 62.2507 128.993 62.483 128.971 62.823C128.925 63.5144 128.676 64.0697 128.223 64.489C127.781 64.897 127.186 65.101 126.438 65.101ZM126.438 63.775C126.778 63.775 127.021 63.6787 127.169 63.486C127.327 63.282 127.418 63.0384 127.441 62.755C127.463 62.3697 127.475 62.1317 127.475 62.041C127.475 61.9164 127.463 61.684 127.441 61.344C127.429 61.0494 127.339 60.8 127.169 60.596C127.01 60.392 126.766 60.29 126.438 60.29C126.109 60.29 125.865 60.392 125.707 60.596C125.548 60.7887 125.457 61.038 125.435 61.344C125.423 61.514 125.418 61.7464 125.418 62.041C125.418 62.3244 125.423 62.5624 125.435 62.755C125.469 63.0497 125.559 63.2934 125.707 63.486C125.865 63.6787 126.109 63.775 126.438 63.775Z" fill="#3AD289"/>
<g filter="url(#filter1_dd)">
<circle cx="195.337" cy="243.337" r="40.3369" fill="white"/>
</g>
<path d="M177.083 236.17C176.131 236.17 175.298 235.989 174.584 235.626C173.87 235.264 173.32 234.771 172.935 234.147C172.55 233.513 172.357 232.799 172.357 232.005C172.357 230.997 172.793 229.897 173.666 228.707L176.777 224.44C176.845 224.338 176.919 224.259 176.998 224.202C177.089 224.134 177.208 224.1 177.355 224.1H178.936C179.038 224.1 179.123 224.14 179.191 224.219C179.259 224.287 179.293 224.372 179.293 224.474C179.293 224.531 179.265 224.605 179.208 224.695L176.828 227.993C177.055 227.937 177.298 227.908 177.559 227.908C178.318 227.931 179.015 228.124 179.65 228.486C180.296 228.838 180.806 229.319 181.18 229.931C181.565 230.543 181.758 231.223 181.758 231.971C181.758 232.731 181.565 233.433 181.18 234.079C180.806 234.714 180.262 235.224 179.548 235.609C178.845 235.983 178.024 236.17 177.083 236.17ZM177.066 234.215C177.712 234.215 178.256 234.023 178.698 233.637C179.14 233.241 179.361 232.691 179.361 231.988C179.361 231.297 179.14 230.759 178.698 230.373C178.256 229.977 177.712 229.778 177.066 229.778C176.42 229.778 175.876 229.977 175.434 230.373C174.992 230.759 174.771 231.297 174.771 231.988C174.771 232.691 174.992 233.241 175.434 233.637C175.876 234.023 176.42 234.215 177.066 234.215ZM187.52 236.187C186.58 236.187 185.769 236.029 185.089 235.711C184.421 235.394 183.905 234.975 183.542 234.453C183.191 233.932 183.004 233.371 182.981 232.77V232.736C182.981 232.646 183.015 232.572 183.083 232.515C183.151 232.459 183.236 232.43 183.338 232.43H184.919C185.18 232.43 185.35 232.544 185.429 232.77C185.588 233.269 185.849 233.637 186.211 233.875C186.585 234.113 187.022 234.232 187.52 234.232C188.155 234.232 188.682 234.04 189.101 233.654C189.532 233.269 189.747 232.731 189.747 232.039C189.747 231.427 189.532 230.929 189.101 230.543C188.682 230.158 188.155 229.965 187.52 229.965C187.18 229.965 186.903 230.011 186.687 230.101C186.472 230.192 186.262 230.317 186.058 230.475C185.922 230.577 185.815 230.651 185.735 230.696C185.667 230.73 185.582 230.747 185.48 230.747H183.916C183.814 230.747 183.724 230.713 183.644 230.645C183.576 230.566 183.542 230.475 183.542 230.373L184.137 224.559C184.149 224.423 184.194 224.316 184.273 224.236C184.364 224.146 184.477 224.1 184.613 224.1H191.005C191.119 224.1 191.215 224.14 191.294 224.219C191.374 224.299 191.413 224.395 191.413 224.508V225.647C191.413 225.761 191.374 225.857 191.294 225.936C191.215 226.016 191.119 226.055 191.005 226.055H186.092L185.82 228.826C186.376 228.441 187.118 228.248 188.047 228.248C188.784 228.248 189.464 228.407 190.087 228.724C190.722 229.03 191.226 229.478 191.6 230.067C191.974 230.645 192.161 231.32 192.161 232.09C192.161 232.918 191.969 233.643 191.583 234.266C191.198 234.878 190.654 235.354 189.951 235.694C189.26 236.023 188.45 236.187 187.52 236.187ZM194.172 236C194.059 236 193.962 235.961 193.883 235.881C193.804 235.802 193.764 235.706 193.764 235.592V233.909C193.764 233.796 193.804 233.7 193.883 233.62C193.962 233.53 194.059 233.484 194.172 233.484H195.872C195.985 233.484 196.082 233.53 196.161 233.62C196.24 233.7 196.28 233.796 196.28 233.909V235.592C196.28 235.706 196.24 235.802 196.161 235.881C196.082 235.961 195.985 236 195.872 236H194.172ZM199.243 236C199.141 236 199.056 235.966 198.988 235.898C198.92 235.819 198.886 235.728 198.886 235.626C198.886 235.592 198.898 235.541 198.92 235.473L203.017 226.123H197.679C197.566 226.123 197.47 226.084 197.39 226.004C197.311 225.925 197.271 225.829 197.271 225.715V224.525C197.271 224.401 197.305 224.299 197.373 224.219C197.453 224.14 197.555 224.1 197.679 224.1H205.142C205.267 224.1 205.363 224.14 205.431 224.219C205.511 224.299 205.55 224.401 205.55 224.525V225.579C205.55 225.806 205.499 226.05 205.397 226.31L201.334 235.592C201.21 235.864 201.028 236 200.79 236H199.243ZM209.273 230.084C208.525 230.084 207.924 229.886 207.471 229.489C207.029 229.093 206.785 228.554 206.74 227.874C206.728 227.682 206.723 227.427 206.723 227.109C206.723 226.769 206.728 226.497 206.74 226.293C206.785 225.591 207.023 225.035 207.454 224.627C207.884 224.219 208.491 224.015 209.273 224.015C210.055 224.015 210.661 224.219 211.092 224.627C211.534 225.035 211.772 225.591 211.806 226.293C211.828 226.747 211.84 227.041 211.84 227.177C211.84 227.302 211.828 227.534 211.806 227.874C211.772 228.554 211.528 229.093 211.075 229.489C210.633 229.886 210.032 230.084 209.273 230.084ZM207.879 236C207.777 236 207.692 235.972 207.624 235.915C207.556 235.847 207.522 235.762 207.522 235.66C207.522 235.592 207.544 235.53 207.59 235.473L215.971 224.423C216.061 224.31 216.146 224.231 216.226 224.185C216.305 224.129 216.413 224.1 216.549 224.1H217.45C217.563 224.1 217.648 224.134 217.705 224.202C217.773 224.259 217.807 224.338 217.807 224.44C217.807 224.508 217.784 224.571 217.739 224.627L209.358 235.677C209.267 235.791 209.182 235.876 209.103 235.932C209.023 235.978 208.916 236 208.78 236H207.879ZM209.273 228.826C209.601 228.826 209.845 228.73 210.004 228.537C210.162 228.333 210.253 228.084 210.276 227.789C210.298 227.404 210.31 227.166 210.31 227.075C210.31 226.951 210.298 226.718 210.276 226.378C210.264 226.084 210.174 225.84 210.004 225.647C209.845 225.443 209.601 225.341 209.273 225.341C208.944 225.341 208.7 225.443 208.542 225.647C208.383 225.84 208.298 226.084 208.287 226.378C208.275 226.548 208.27 226.781 208.27 227.075C208.27 227.359 208.275 227.597 208.287 227.789C208.309 228.084 208.394 228.333 208.542 228.537C208.7 228.73 208.944 228.826 209.273 228.826ZM216.056 236.102C215.308 236.102 214.707 235.898 214.254 235.49C213.812 235.071 213.568 234.516 213.523 233.824C213.511 233.632 213.506 233.377 213.506 233.059C213.506 232.731 213.511 232.464 213.523 232.26C213.568 231.558 213.806 231.002 214.237 230.594C214.667 230.186 215.274 229.982 216.056 229.982C216.838 229.982 217.444 230.186 217.875 230.594C218.317 231.002 218.555 231.558 218.589 232.26C218.611 232.714 218.623 233.003 218.623 233.127C218.623 233.252 218.611 233.484 218.589 233.824C218.543 234.516 218.294 235.071 217.841 235.49C217.399 235.898 216.804 236.102 216.056 236.102ZM216.056 234.776C216.396 234.776 216.639 234.68 216.787 234.487C216.945 234.283 217.036 234.04 217.059 233.756C217.081 233.371 217.093 233.133 217.093 233.042C217.093 232.918 217.081 232.685 217.059 232.345C217.047 232.051 216.957 231.801 216.787 231.597C216.628 231.393 216.384 231.291 216.056 231.291C215.727 231.291 215.483 231.393 215.325 231.597C215.166 231.79 215.075 232.039 215.053 232.345C215.041 232.515 215.036 232.748 215.036 233.042C215.036 233.326 215.041 233.564 215.053 233.756C215.087 234.051 215.177 234.295 215.325 234.487C215.483 234.68 215.727 234.776 216.056 234.776Z" fill="#E23744"/>
<path d="M182.772 252.11C181.811 252.11 181.067 251.861 180.539 251.362C180.018 250.856 179.743 250.097 179.714 249.085C179.707 248.865 179.703 248.554 179.703 248.15C179.703 247.747 179.707 247.439 179.714 247.226C179.743 246.236 180.029 245.485 180.572 244.971C181.115 244.451 181.848 244.19 182.772 244.19C183.689 244.19 184.418 244.451 184.961 244.971C185.504 245.485 185.79 246.236 185.819 247.226C185.834 247.652 185.841 247.96 185.841 248.15C185.841 248.334 185.834 248.645 185.819 249.085C185.79 250.097 185.511 250.856 184.983 251.362C184.462 251.861 183.725 252.11 182.772 252.11ZM182.772 251.175C183.351 251.175 183.813 250.999 184.158 250.647C184.503 250.295 184.69 249.756 184.719 249.03C184.734 248.59 184.741 248.297 184.741 248.15C184.741 247.989 184.734 247.696 184.719 247.27C184.69 246.544 184.499 246.005 184.147 245.653C183.802 245.301 183.344 245.125 182.772 245.125C182.193 245.125 181.727 245.301 181.375 245.653C181.03 246.005 180.843 246.544 180.814 247.27C180.807 247.483 180.803 247.776 180.803 248.15C180.803 248.517 180.807 248.81 180.814 249.03C180.843 249.756 181.03 250.295 181.375 250.647C181.727 250.999 182.193 251.175 182.772 251.175ZM188.126 252C188.053 252 187.991 251.978 187.939 251.934C187.895 251.883 187.873 251.821 187.873 251.747V247.16H186.938C186.865 247.16 186.803 247.138 186.751 247.094C186.707 247.043 186.685 246.981 186.685 246.907V246.533C186.685 246.46 186.707 246.401 186.751 246.357C186.803 246.306 186.865 246.28 186.938 246.28H187.873V245.73C187.873 244.484 188.504 243.86 189.765 243.86H190.425C190.499 243.86 190.557 243.886 190.601 243.937C190.653 243.981 190.678 244.04 190.678 244.113V244.487C190.678 244.561 190.653 244.623 190.601 244.674C190.557 244.718 190.499 244.74 190.425 244.74H189.787C189.457 244.74 189.226 244.828 189.094 245.004C188.962 245.173 188.896 245.433 188.896 245.785V246.28H191.25V245.73C191.25 245.129 191.397 244.667 191.69 244.344C191.991 244.022 192.471 243.86 193.131 243.86H193.747C193.821 243.86 193.879 243.886 193.923 243.937C193.975 243.981 194 244.04 194 244.113V244.487C194 244.561 193.975 244.623 193.923 244.674C193.879 244.718 193.821 244.74 193.747 244.74H193.164C192.827 244.74 192.592 244.828 192.46 245.004C192.328 245.173 192.262 245.433 192.262 245.785V246.28H194.616V244.113C194.616 244.04 194.638 243.981 194.682 243.937C194.734 243.886 194.796 243.86 194.869 243.86H195.386C195.46 243.86 195.518 243.886 195.562 243.937C195.614 243.981 195.639 244.04 195.639 244.113V251.747C195.639 251.821 195.614 251.883 195.562 251.934C195.518 251.978 195.46 252 195.386 252H194.869C194.796 252 194.734 251.978 194.682 251.934C194.638 251.883 194.616 251.821 194.616 251.747V247.16H192.262V251.747C192.262 251.821 192.237 251.883 192.185 251.934C192.141 251.978 192.083 252 192.009 252H191.503C191.43 252 191.368 251.978 191.316 251.934C191.272 251.883 191.25 251.821 191.25 251.747V247.16H188.896V251.747C188.896 251.821 188.871 251.883 188.819 251.934C188.775 251.978 188.717 252 188.643 252H188.126ZM197.446 245.213C197.372 245.213 197.31 245.191 197.259 245.147C197.215 245.096 197.193 245.034 197.193 244.96V244.366C197.193 244.293 197.215 244.231 197.259 244.179C197.31 244.128 197.372 244.102 197.446 244.102H198.139C198.212 244.102 198.274 244.128 198.326 244.179C198.377 244.231 198.403 244.293 198.403 244.366V244.96C198.403 245.034 198.377 245.096 198.326 245.147C198.274 245.191 198.212 245.213 198.139 245.213H197.446ZM197.534 252C197.46 252 197.398 251.978 197.347 251.934C197.303 251.883 197.281 251.821 197.281 251.747V246.533C197.281 246.46 197.303 246.401 197.347 246.357C197.398 246.306 197.46 246.28 197.534 246.28H198.062C198.135 246.28 198.194 246.306 198.238 246.357C198.289 246.401 198.315 246.46 198.315 246.533V251.747C198.315 251.821 198.289 251.883 198.238 251.934C198.194 251.978 198.135 252 198.062 252H197.534ZM200.198 252C200.125 252 200.062 251.978 200.011 251.934C199.967 251.883 199.945 251.821 199.945 251.747V246.533C199.945 246.46 199.967 246.401 200.011 246.357C200.062 246.306 200.125 246.28 200.198 246.28H200.715C200.788 246.28 200.847 246.306 200.891 246.357C200.942 246.401 200.968 246.46 200.968 246.533V247.017C201.181 246.746 201.43 246.537 201.716 246.39C202.009 246.244 202.372 246.17 202.805 246.17C203.509 246.17 204.055 246.398 204.444 246.852C204.84 247.3 205.038 247.897 205.038 248.645V251.747C205.038 251.821 205.012 251.883 204.961 251.934C204.917 251.978 204.858 252 204.785 252H204.235C204.162 252 204.099 251.978 204.048 251.934C204.004 251.883 203.982 251.821 203.982 251.747V248.7C203.982 248.18 203.854 247.776 203.597 247.49C203.348 247.204 202.985 247.061 202.508 247.061C202.046 247.061 201.679 247.208 201.408 247.501C201.137 247.787 201.001 248.187 201.001 248.7V251.747C201.001 251.821 200.975 251.883 200.924 251.934C200.88 251.978 200.821 252 200.748 252H200.198ZM208.904 252.11C208.148 252.11 207.543 251.879 207.089 251.417C206.641 250.948 206.396 250.31 206.352 249.503L206.341 249.129L206.352 248.766C206.403 247.974 206.652 247.344 207.1 246.874C207.554 246.405 208.152 246.17 208.893 246.17C209.707 246.17 210.337 246.431 210.785 246.951C211.232 247.465 211.456 248.161 211.456 249.041V249.228C211.456 249.302 211.43 249.364 211.379 249.415C211.335 249.459 211.276 249.481 211.203 249.481H207.397V249.58C207.419 250.057 207.562 250.464 207.826 250.801C208.097 251.131 208.453 251.296 208.893 251.296C209.23 251.296 209.505 251.23 209.718 251.098C209.938 250.959 210.099 250.816 210.202 250.669C210.268 250.581 210.315 250.53 210.345 250.515C210.381 250.493 210.444 250.482 210.532 250.482H211.071C211.137 250.482 211.192 250.501 211.236 250.537C211.28 250.574 211.302 250.625 211.302 250.691C211.302 250.853 211.199 251.047 210.994 251.274C210.796 251.502 210.513 251.7 210.147 251.868C209.787 252.03 209.373 252.11 208.904 252.11ZM210.411 248.722V248.689C210.411 248.183 210.271 247.773 209.993 247.457C209.721 247.135 209.355 246.973 208.893 246.973C208.431 246.973 208.064 247.135 207.793 247.457C207.529 247.773 207.397 248.183 207.397 248.689V248.722H210.411ZM175.455 265.11C174.846 265.11 174.318 265.015 173.871 264.824C173.431 264.634 173.094 264.384 172.859 264.076C172.624 263.761 172.5 263.424 172.485 263.064C172.485 263.006 172.507 262.954 172.551 262.91C172.602 262.859 172.661 262.833 172.727 262.833H173.288C173.427 262.833 173.523 262.907 173.574 263.053C173.64 263.361 173.827 263.625 174.135 263.845C174.45 264.065 174.89 264.175 175.455 264.175C176.064 264.175 176.522 264.069 176.83 263.856C177.138 263.636 177.292 263.332 177.292 262.943C177.292 262.694 177.215 262.492 177.061 262.338C176.914 262.184 176.694 262.049 176.401 261.931C176.108 261.814 175.668 261.667 175.081 261.491C174.509 261.33 174.054 261.158 173.717 260.974C173.38 260.791 173.127 260.564 172.958 260.292C172.789 260.021 172.705 259.68 172.705 259.269C172.705 258.873 172.811 258.518 173.024 258.202C173.244 257.887 173.556 257.641 173.959 257.465C174.362 257.282 174.843 257.19 175.4 257.19C175.972 257.19 176.463 257.293 176.874 257.498C177.285 257.696 177.596 257.949 177.809 258.257C178.022 258.565 178.135 258.873 178.15 259.181C178.15 259.24 178.128 259.291 178.084 259.335C178.047 259.379 177.992 259.401 177.919 259.401H177.336C177.182 259.401 177.087 259.332 177.05 259.192C177.006 258.884 176.834 258.631 176.533 258.433C176.232 258.228 175.855 258.125 175.4 258.125C174.901 258.125 174.509 258.221 174.223 258.411C173.937 258.602 173.794 258.884 173.794 259.258C173.794 259.508 173.86 259.713 173.992 259.874C174.131 260.036 174.34 260.179 174.619 260.303C174.898 260.421 175.305 260.556 175.84 260.71C176.463 260.879 176.955 261.055 177.314 261.238C177.673 261.414 177.941 261.638 178.117 261.909C178.293 262.173 178.381 262.511 178.381 262.921C178.381 263.603 178.117 264.139 177.589 264.527C177.061 264.916 176.35 265.11 175.455 265.11ZM181.913 265C180.754 265 180.175 264.355 180.175 263.064V260.16H179.317C179.243 260.16 179.181 260.138 179.13 260.094C179.086 260.043 179.064 259.981 179.064 259.907V259.533C179.064 259.46 179.086 259.401 179.13 259.357C179.181 259.306 179.243 259.28 179.317 259.28H180.175V257.443C180.175 257.37 180.197 257.311 180.241 257.267C180.292 257.216 180.354 257.19 180.428 257.19H180.945C181.018 257.19 181.077 257.216 181.121 257.267C181.172 257.311 181.198 257.37 181.198 257.443V259.28H182.562C182.635 259.28 182.694 259.306 182.738 259.357C182.789 259.401 182.815 259.46 182.815 259.533V259.907C182.815 259.981 182.789 260.043 182.738 260.094C182.694 260.138 182.635 260.16 182.562 260.16H181.198V262.987C181.198 263.354 181.26 263.633 181.385 263.823C181.509 264.007 181.715 264.098 182.001 264.098H182.672C182.745 264.098 182.804 264.124 182.848 264.175C182.899 264.219 182.925 264.278 182.925 264.351V264.747C182.925 264.821 182.899 264.883 182.848 264.934C182.804 264.978 182.745 265 182.672 265H181.913ZM186.111 265.11C185.414 265.11 184.875 264.887 184.494 264.439C184.112 263.985 183.922 263.383 183.922 262.635V259.533C183.922 259.46 183.944 259.401 183.988 259.357C184.039 259.306 184.101 259.28 184.175 259.28H184.725C184.798 259.28 184.857 259.306 184.901 259.357C184.952 259.401 184.978 259.46 184.978 259.533V262.58C184.978 263.673 185.454 264.219 186.408 264.219C186.87 264.219 187.236 264.076 187.508 263.79C187.779 263.497 187.915 263.094 187.915 262.58V259.533C187.915 259.46 187.937 259.401 187.981 259.357C188.032 259.306 188.094 259.28 188.168 259.28H188.718C188.791 259.28 188.85 259.306 188.894 259.357C188.938 259.401 188.96 259.46 188.96 259.533V264.747C188.96 264.821 188.938 264.883 188.894 264.934C188.85 264.978 188.791 265 188.718 265H188.201C188.127 265 188.065 264.978 188.014 264.934C187.97 264.883 187.948 264.821 187.948 264.747V264.263C187.742 264.542 187.493 264.755 187.2 264.901C186.906 265.041 186.543 265.11 186.111 265.11ZM192.684 265.11C191.921 265.11 191.345 264.861 190.957 264.362C190.568 263.864 190.363 263.233 190.341 262.47L190.33 262.14L190.341 261.81C190.363 261.055 190.568 260.428 190.957 259.929C191.345 259.423 191.921 259.17 192.684 259.17C193.439 259.17 194.033 259.438 194.466 259.973V257.443C194.466 257.37 194.488 257.311 194.532 257.267C194.583 257.216 194.645 257.19 194.719 257.19H195.247C195.32 257.19 195.379 257.216 195.423 257.267C195.474 257.311 195.5 257.37 195.5 257.443V264.747C195.5 264.821 195.474 264.883 195.423 264.934C195.379 264.978 195.32 265 195.247 265H194.752C194.678 265 194.616 264.978 194.565 264.934C194.521 264.883 194.499 264.821 194.499 264.747V264.285C194.073 264.835 193.468 265.11 192.684 265.11ZM192.915 264.219C193.421 264.219 193.798 264.054 194.048 263.724C194.304 263.387 194.444 262.987 194.466 262.525C194.473 262.445 194.477 262.305 194.477 262.107C194.477 261.902 194.473 261.759 194.466 261.678C194.451 261.246 194.312 260.868 194.048 260.545C193.784 260.223 193.406 260.061 192.915 260.061C192.394 260.061 192.013 260.223 191.771 260.545C191.536 260.868 191.408 261.293 191.386 261.821L191.375 262.14C191.375 263.526 191.888 264.219 192.915 264.219ZM199.424 265.11C198.668 265.11 198.063 264.879 197.609 264.417C197.161 263.948 196.916 263.31 196.872 262.503L196.861 262.129L196.872 261.766C196.923 260.974 197.172 260.344 197.62 259.874C198.074 259.405 198.672 259.17 199.413 259.17C200.227 259.17 200.857 259.431 201.305 259.951C201.752 260.465 201.976 261.161 201.976 262.041V262.228C201.976 262.302 201.95 262.364 201.899 262.415C201.855 262.459 201.796 262.481 201.723 262.481H197.917V262.58C197.939 263.057 198.082 263.464 198.346 263.801C198.617 264.131 198.973 264.296 199.413 264.296C199.75 264.296 200.025 264.23 200.238 264.098C200.458 263.959 200.619 263.816 200.722 263.669C200.788 263.581 200.835 263.53 200.865 263.515C200.901 263.493 200.964 263.482 201.052 263.482H201.591C201.657 263.482 201.712 263.501 201.756 263.537C201.8 263.574 201.822 263.625 201.822 263.691C201.822 263.853 201.719 264.047 201.514 264.274C201.316 264.502 201.033 264.7 200.667 264.868C200.307 265.03 199.893 265.11 199.424 265.11ZM200.931 261.722V261.689C200.931 261.183 200.791 260.773 200.513 260.457C200.241 260.135 199.875 259.973 199.413 259.973C198.951 259.973 198.584 260.135 198.313 260.457C198.049 260.773 197.917 261.183 197.917 261.689V261.722H200.931ZM203.544 265C203.471 265 203.408 264.978 203.357 264.934C203.313 264.883 203.291 264.821 203.291 264.747V259.533C203.291 259.46 203.313 259.401 203.357 259.357C203.408 259.306 203.471 259.28 203.544 259.28H204.061C204.134 259.28 204.193 259.306 204.237 259.357C204.288 259.401 204.314 259.46 204.314 259.533V260.017C204.527 259.746 204.776 259.537 205.062 259.39C205.355 259.244 205.718 259.17 206.151 259.17C206.855 259.17 207.401 259.398 207.79 259.852C208.186 260.3 208.384 260.897 208.384 261.645V264.747C208.384 264.821 208.358 264.883 208.307 264.934C208.263 264.978 208.204 265 208.131 265H207.581C207.508 265 207.445 264.978 207.394 264.934C207.35 264.883 207.328 264.821 207.328 264.747V261.7C207.328 261.18 207.2 260.776 206.943 260.49C206.694 260.204 206.331 260.061 205.854 260.061C205.392 260.061 205.025 260.208 204.754 260.501C204.483 260.787 204.347 261.187 204.347 261.7V264.747C204.347 264.821 204.321 264.883 204.27 264.934C204.226 264.978 204.167 265 204.094 265H203.544ZM212.12 265C210.961 265 210.382 264.355 210.382 263.064V260.16H209.524C209.45 260.16 209.388 260.138 209.337 260.094C209.293 260.043 209.271 259.981 209.271 259.907V259.533C209.271 259.46 209.293 259.401 209.337 259.357C209.388 259.306 209.45 259.28 209.524 259.28H210.382V257.443C210.382 257.37 210.404 257.311 210.448 257.267C210.499 257.216 210.561 257.19 210.635 257.19H211.152C211.225 257.19 211.284 257.216 211.328 257.267C211.379 257.311 211.405 257.37 211.405 257.443V259.28H212.769C212.842 259.28 212.901 259.306 212.945 259.357C212.996 259.401 213.022 259.46 213.022 259.533V259.907C213.022 259.981 212.996 260.043 212.945 260.094C212.901 260.138 212.842 260.16 212.769 260.16H211.405V262.987C211.405 263.354 211.467 263.633 211.592 263.823C211.716 264.007 211.922 264.098 212.208 264.098H212.879C212.952 264.098 213.011 264.124 213.055 264.175C213.106 264.219 213.132 264.278 213.132 264.351V264.747C213.132 264.821 213.106 264.883 213.055 264.934C213.011 264.978 212.952 265 212.879 265H212.12ZM216.164 265.11C215.65 265.11 215.218 265.03 214.866 264.868C214.521 264.7 214.261 264.509 214.085 264.296C213.916 264.084 213.832 263.908 213.832 263.768C213.832 263.695 213.857 263.64 213.909 263.603C213.967 263.559 214.026 263.537 214.085 263.537H214.58C214.653 263.537 214.719 263.574 214.778 263.647C214.954 263.853 215.144 264.014 215.35 264.131C215.555 264.249 215.83 264.307 216.175 264.307C216.556 264.307 216.864 264.234 217.099 264.087C217.341 263.933 217.462 263.724 217.462 263.46C217.462 263.284 217.41 263.141 217.308 263.031C217.212 262.914 217.044 262.815 216.802 262.734C216.567 262.646 216.215 262.551 215.746 262.448C215.108 262.309 214.653 262.107 214.382 261.843C214.118 261.579 213.986 261.238 213.986 260.82C213.986 260.542 214.066 260.278 214.228 260.028C214.396 259.772 214.638 259.566 214.954 259.412C215.276 259.251 215.661 259.17 216.109 259.17C216.578 259.17 216.978 259.247 217.308 259.401C217.638 259.555 217.883 259.739 218.045 259.951C218.213 260.157 218.298 260.329 218.298 260.468C218.298 260.534 218.272 260.589 218.221 260.633C218.177 260.677 218.122 260.699 218.056 260.699H217.594C217.506 260.699 217.432 260.663 217.374 260.589C217.256 260.45 217.154 260.344 217.066 260.27C216.985 260.19 216.864 260.12 216.703 260.061C216.549 260.003 216.351 259.973 216.109 259.973C215.757 259.973 215.485 260.05 215.295 260.204C215.104 260.351 215.009 260.545 215.009 260.787C215.009 260.941 215.049 261.073 215.13 261.183C215.21 261.286 215.364 261.381 215.592 261.469C215.826 261.557 216.164 261.649 216.604 261.744C217.3 261.891 217.792 262.104 218.078 262.382C218.371 262.654 218.518 263.002 218.518 263.427C218.518 263.743 218.426 264.029 218.243 264.285C218.059 264.542 217.788 264.744 217.429 264.89C217.077 265.037 216.655 265.11 216.164 265.11Z" fill="#808080"/>
<g filter="url(#filter2_dd)">
<circle cx="81.0005" cy="240" r="36" fill="white"/>
</g>
<path d="M71.4742 248C71.4008 248 71.3385 247.978 71.2872 247.934C71.2432 247.883 71.2212 247.82 71.2212 247.747V240.564C71.2212 240.483 71.2432 240.421 71.2872 240.377C71.3385 240.326 71.4008 240.3 71.4742 240.3H71.9802C72.1122 240.3 72.2038 240.351 72.2552 240.454L75.9072 246.064V240.564C75.9072 240.483 75.9292 240.421 75.9732 240.377C76.0245 240.326 76.0868 240.3 76.1602 240.3H76.6882C76.7688 240.3 76.8312 240.326 76.8752 240.377C76.9265 240.421 76.9522 240.483 76.9522 240.564V247.736C76.9522 247.809 76.9265 247.872 76.8752 247.923C76.8312 247.974 76.7725 248 76.6992 248H76.1712C76.0612 248 75.9732 247.949 75.9072 247.846L72.2662 242.291V247.747C72.2662 247.82 72.2405 247.883 72.1892 247.934C72.1378 247.978 72.0755 248 72.0022 248H71.4742ZM81.0146 248.11C80.2593 248.11 79.6543 247.879 79.1996 247.417C78.7523 246.948 78.5066 246.31 78.4626 245.503L78.4516 245.129L78.4626 244.766C78.5139 243.974 78.7633 243.343 79.2106 242.874C79.6653 242.405 80.2629 242.17 81.0036 242.17C81.8176 242.17 82.4483 242.43 82.8956 242.951C83.3429 243.464 83.5666 244.161 83.5666 245.041V245.228C83.5666 245.301 83.5409 245.364 83.4896 245.415C83.4456 245.459 83.3869 245.481 83.3136 245.481H79.5076V245.58C79.5296 246.057 79.6726 246.464 79.9366 246.801C80.2079 247.131 80.5636 247.296 81.0036 247.296C81.3409 247.296 81.6159 247.23 81.8286 247.098C82.0486 246.959 82.2099 246.816 82.3126 246.669C82.3786 246.581 82.4263 246.53 82.4556 246.515C82.4923 246.493 82.5546 246.482 82.6426 246.482H83.1816C83.2476 246.482 83.3026 246.5 83.3466 246.537C83.3906 246.574 83.4126 246.625 83.4126 246.691C83.4126 246.852 83.3099 247.047 83.1046 247.274C82.9066 247.501 82.6243 247.699 82.2576 247.868C81.8983 248.029 81.4839 248.11 81.0146 248.11ZM82.5216 244.722V244.689C82.5216 244.183 82.3823 243.772 82.1036 243.457C81.8323 243.134 81.4656 242.973 81.0036 242.973C80.5416 242.973 80.1749 243.134 79.9036 243.457C79.6396 243.772 79.5076 244.183 79.5076 244.689V244.722H82.5216ZM86.2495 248C86.1541 248 86.0808 247.978 86.0295 247.934C85.9781 247.89 85.9341 247.82 85.8975 247.725L84.3355 242.621L84.3135 242.511C84.3135 242.445 84.3355 242.39 84.3795 242.346C84.4308 242.302 84.4858 242.28 84.5445 242.28H85.0285C85.1018 242.28 85.1605 242.302 85.2045 242.346C85.2558 242.383 85.2888 242.423 85.3035 242.467L86.5245 246.614L87.8335 242.511C87.8481 242.452 87.8811 242.401 87.9325 242.357C87.9838 242.306 88.0535 242.28 88.1415 242.28H88.5155C88.6035 242.28 88.6731 242.306 88.7245 242.357C88.7758 242.401 88.8088 242.452 88.8235 242.511L90.1325 246.614L91.3535 242.467C91.3608 242.43 91.3865 242.39 91.4305 242.346C91.4818 242.302 91.5441 242.28 91.6175 242.28H92.1125C92.1711 242.28 92.2225 242.302 92.2665 242.346C92.3105 242.39 92.3325 242.445 92.3325 242.511L92.3105 242.621L90.7595 247.725C90.7228 247.82 90.6788 247.89 90.6275 247.934C90.5761 247.978 90.4991 248 90.3965 248H89.9675C89.7695 248 89.6485 247.908 89.6045 247.725L88.3285 243.787L87.0525 247.725C86.9938 247.908 86.8691 248 86.6785 248H86.2495ZM61.4554 261.11C60.8468 261.11 60.3188 261.015 59.8714 260.824C59.4314 260.633 59.0941 260.384 58.8594 260.076C58.6248 259.761 58.5001 259.423 58.4854 259.064C58.4854 259.005 58.5074 258.954 58.5514 258.91C58.6028 258.859 58.6614 258.833 58.7274 258.833H59.2884C59.4278 258.833 59.5231 258.906 59.5744 259.053C59.6404 259.361 59.8274 259.625 60.1354 259.845C60.4508 260.065 60.8908 260.175 61.4554 260.175C62.0641 260.175 62.5224 260.069 62.8304 259.856C63.1384 259.636 63.2924 259.332 63.2924 258.943C63.2924 258.694 63.2154 258.492 63.0614 258.338C62.9148 258.184 62.6948 258.048 62.4014 257.931C62.1081 257.814 61.6681 257.667 61.0814 257.491C60.5094 257.33 60.0548 257.157 59.7174 256.974C59.3801 256.791 59.1271 256.563 58.9584 256.292C58.7898 256.021 58.7054 255.68 58.7054 255.269C58.7054 254.873 58.8118 254.517 59.0244 254.202C59.2444 253.887 59.5561 253.641 59.9594 253.465C60.3628 253.282 60.8431 253.19 61.4004 253.19C61.9724 253.19 62.4638 253.293 62.8744 253.498C63.2851 253.696 63.5968 253.949 63.8094 254.257C64.0221 254.565 64.1358 254.873 64.1504 255.181C64.1504 255.24 64.1284 255.291 64.0844 255.335C64.0478 255.379 63.9928 255.401 63.9194 255.401H63.3364C63.1824 255.401 63.0871 255.331 63.0504 255.192C63.0064 254.884 62.8341 254.631 62.5334 254.433C62.2328 254.228 61.8551 254.125 61.4004 254.125C60.9018 254.125 60.5094 254.22 60.2234 254.411C59.9374 254.602 59.7944 254.884 59.7944 255.258C59.7944 255.507 59.8604 255.713 59.9924 255.874C60.1318 256.035 60.3408 256.178 60.6194 256.303C60.8981 256.42 61.3051 256.556 61.8404 256.71C62.4638 256.879 62.9551 257.055 63.3144 257.238C63.6738 257.414 63.9414 257.638 64.1174 257.909C64.2934 258.173 64.3814 258.51 64.3814 258.921C64.3814 259.603 64.1174 260.138 63.5894 260.527C63.0614 260.916 62.3501 261.11 61.4554 261.11ZM67.9132 261C66.7545 261 66.1752 260.355 66.1752 259.064V256.16H65.3172C65.2439 256.16 65.1815 256.138 65.1302 256.094C65.0862 256.043 65.0642 255.98 65.0642 255.907V255.533C65.0642 255.46 65.0862 255.401 65.1302 255.357C65.1815 255.306 65.2439 255.28 65.3172 255.28H66.1752V253.443C66.1752 253.37 66.1972 253.311 66.2412 253.267C66.2925 253.216 66.3549 253.19 66.4282 253.19H66.9452C67.0185 253.19 67.0772 253.216 67.1212 253.267C67.1725 253.311 67.1982 253.37 67.1982 253.443V255.28H68.5622C68.6355 255.28 68.6942 255.306 68.7382 255.357C68.7895 255.401 68.8152 255.46 68.8152 255.533V255.907C68.8152 255.98 68.7895 256.043 68.7382 256.094C68.6942 256.138 68.6355 256.16 68.5622 256.16H67.1982V258.987C67.1982 259.354 67.2605 259.632 67.3852 259.823C67.5099 260.006 67.7152 260.098 68.0012 260.098H68.6722C68.7455 260.098 68.8042 260.124 68.8482 260.175C68.8995 260.219 68.9252 260.278 68.9252 260.351V260.747C68.9252 260.82 68.8995 260.883 68.8482 260.934C68.8042 260.978 68.7455 261 68.6722 261H67.9132ZM72.1111 261.11C71.4144 261.11 70.8754 260.886 70.4941 260.439C70.1128 259.984 69.9221 259.383 69.9221 258.635V255.533C69.9221 255.46 69.9441 255.401 69.9881 255.357C70.0394 255.306 70.1018 255.28 70.1751 255.28H70.7251C70.7984 255.28 70.8571 255.306 70.9011 255.357C70.9524 255.401 70.9781 255.46 70.9781 255.533V258.58C70.9781 259.673 71.4548 260.219 72.4081 260.219C72.8701 260.219 73.2368 260.076 73.5081 259.79C73.7794 259.497 73.9151 259.093 73.9151 258.58V255.533C73.9151 255.46 73.9371 255.401 73.9811 255.357C74.0324 255.306 74.0948 255.28 74.1681 255.28H74.7181C74.7914 255.28 74.8501 255.306 74.8941 255.357C74.9381 255.401 74.9601 255.46 74.9601 255.533V260.747C74.9601 260.82 74.9381 260.883 74.8941 260.934C74.8501 260.978 74.7914 261 74.7181 261H74.2011C74.1278 261 74.0654 260.978 74.0141 260.934C73.9701 260.883 73.9481 260.82 73.9481 260.747V260.263C73.7428 260.542 73.4934 260.754 73.2001 260.901C72.9068 261.04 72.5438 261.11 72.1111 261.11ZM78.6843 261.11C77.9216 261.11 77.3459 260.861 76.9573 260.362C76.5686 259.863 76.3633 259.233 76.3413 258.47L76.3303 258.14L76.3413 257.81C76.3633 257.055 76.5686 256.428 76.9573 255.929C77.3459 255.423 77.9216 255.17 78.6843 255.17C79.4396 255.17 80.0336 255.438 80.4663 255.973V253.443C80.4663 253.37 80.4883 253.311 80.5323 253.267C80.5836 253.216 80.6459 253.19 80.7193 253.19H81.2473C81.3206 253.19 81.3793 253.216 81.4233 253.267C81.4746 253.311 81.5003 253.37 81.5003 253.443V260.747C81.5003 260.82 81.4746 260.883 81.4233 260.934C81.3793 260.978 81.3206 261 81.2473 261H80.7523C80.6789 261 80.6166 260.978 80.5653 260.934C80.5213 260.883 80.4993 260.82 80.4993 260.747V260.285C80.0739 260.835 79.4689 261.11 78.6843 261.11ZM78.9153 260.219C79.4213 260.219 79.7989 260.054 80.0483 259.724C80.3049 259.387 80.4443 258.987 80.4663 258.525C80.4736 258.444 80.4773 258.305 80.4773 258.107C80.4773 257.902 80.4736 257.759 80.4663 257.678C80.4516 257.245 80.3123 256.868 80.0483 256.545C79.7843 256.222 79.4066 256.061 78.9153 256.061C78.3946 256.061 78.0133 256.222 77.7713 256.545C77.5366 256.868 77.4083 257.293 77.3863 257.821L77.3753 258.14C77.3753 259.526 77.8886 260.219 78.9153 260.219ZM85.4243 261.11C84.6689 261.11 84.0639 260.879 83.6093 260.417C83.1619 259.948 82.9163 259.31 82.8723 258.503L82.8613 258.129L82.8723 257.766C82.9236 256.974 83.1729 256.343 83.6203 255.874C84.0749 255.405 84.6726 255.17 85.4133 255.17C86.2273 255.17 86.8579 255.43 87.3053 255.951C87.7526 256.464 87.9763 257.161 87.9763 258.041V258.228C87.9763 258.301 87.9506 258.364 87.8993 258.415C87.8553 258.459 87.7966 258.481 87.7233 258.481H83.9173V258.58C83.9393 259.057 84.0823 259.464 84.3463 259.801C84.6176 260.131 84.9733 260.296 85.4133 260.296C85.7506 260.296 86.0256 260.23 86.2383 260.098C86.4583 259.959 86.6196 259.816 86.7223 259.669C86.7883 259.581 86.8359 259.53 86.8653 259.515C86.9019 259.493 86.9643 259.482 87.0523 259.482H87.5913C87.6573 259.482 87.7123 259.5 87.7563 259.537C87.8003 259.574 87.8223 259.625 87.8223 259.691C87.8223 259.852 87.7196 260.047 87.5143 260.274C87.3163 260.501 87.0339 260.699 86.6673 260.868C86.3079 261.029 85.8936 261.11 85.4243 261.11ZM86.9313 257.722V257.689C86.9313 257.183 86.7919 256.772 86.5133 256.457C86.2419 256.134 85.8753 255.973 85.4133 255.973C84.9513 255.973 84.5846 256.134 84.3133 256.457C84.0493 256.772 83.9173 257.183 83.9173 257.689V257.722H86.9313ZM89.5445 261C89.4712 261 89.4089 260.978 89.3575 260.934C89.3135 260.883 89.2915 260.82 89.2915 260.747V255.533C89.2915 255.46 89.3135 255.401 89.3575 255.357C89.4089 255.306 89.4712 255.28 89.5445 255.28H90.0615C90.1349 255.28 90.1935 255.306 90.2375 255.357C90.2889 255.401 90.3145 255.46 90.3145 255.533V256.017C90.5272 255.746 90.7765 255.537 91.0625 255.39C91.3559 255.243 91.7189 255.17 92.1515 255.17C92.8555 255.17 93.4019 255.397 93.7905 255.852C94.1865 256.299 94.3845 256.897 94.3845 257.645V260.747C94.3845 260.82 94.3589 260.883 94.3075 260.934C94.2635 260.978 94.2049 261 94.1315 261H93.5815C93.5082 261 93.4459 260.978 93.3945 260.934C93.3505 260.883 93.3285 260.82 93.3285 260.747V257.7C93.3285 257.179 93.2002 256.776 92.9435 256.49C92.6942 256.204 92.3312 256.061 91.8545 256.061C91.3925 256.061 91.0259 256.208 90.7545 256.501C90.4832 256.787 90.3475 257.187 90.3475 257.7V260.747C90.3475 260.82 90.3219 260.883 90.2705 260.934C90.2265 260.978 90.1679 261 90.0945 261H89.5445ZM98.1202 261C96.9616 261 96.3822 260.355 96.3822 259.064V256.16H95.5242C95.4509 256.16 95.3886 256.138 95.3372 256.094C95.2932 256.043 95.2712 255.98 95.2712 255.907V255.533C95.2712 255.46 95.2932 255.401 95.3372 255.357C95.3886 255.306 95.4509 255.28 95.5242 255.28H96.3822V253.443C96.3822 253.37 96.4042 253.311 96.4482 253.267C96.4996 253.216 96.5619 253.19 96.6352 253.19H97.1522C97.2256 253.19 97.2842 253.216 97.3282 253.267C97.3796 253.311 97.4052 253.37 97.4052 253.443V255.28H98.7692C98.8426 255.28 98.9012 255.306 98.9452 255.357C98.9966 255.401 99.0222 255.46 99.0222 255.533V255.907C99.0222 255.98 98.9966 256.043 98.9452 256.094C98.9012 256.138 98.8426 256.16 98.7692 256.16H97.4052V258.987C97.4052 259.354 97.4676 259.632 97.5922 259.823C97.7169 260.006 97.9222 260.098 98.2082 260.098H98.8792C98.9526 260.098 99.0112 260.124 99.0552 260.175C99.1066 260.219 99.1322 260.278 99.1322 260.351V260.747C99.1322 260.82 99.1066 260.883 99.0552 260.934C99.0112 260.978 98.9526 261 98.8792 261H98.1202ZM102.164 261.11C101.651 261.11 101.218 261.029 100.866 260.868C100.521 260.699 100.261 260.509 100.085 260.296C99.9165 260.083 99.8321 259.907 99.8321 259.768C99.8321 259.695 99.8578 259.64 99.9091 259.603C99.9678 259.559 100.026 259.537 100.085 259.537H100.58C100.653 259.537 100.719 259.574 100.778 259.647C100.954 259.852 101.145 260.014 101.35 260.131C101.555 260.248 101.83 260.307 102.175 260.307C102.556 260.307 102.864 260.234 103.099 260.087C103.341 259.933 103.462 259.724 103.462 259.46C103.462 259.284 103.411 259.141 103.308 259.031C103.213 258.914 103.044 258.815 102.802 258.734C102.567 258.646 102.215 258.551 101.746 258.448C101.108 258.309 100.653 258.107 100.382 257.843C100.118 257.579 99.9861 257.238 99.9861 256.82C99.9861 256.541 100.067 256.277 100.228 256.028C100.397 255.771 100.639 255.566 100.954 255.412C101.277 255.251 101.662 255.17 102.109 255.17C102.578 255.17 102.978 255.247 103.308 255.401C103.638 255.555 103.884 255.738 104.045 255.951C104.214 256.156 104.298 256.329 104.298 256.468C104.298 256.534 104.272 256.589 104.221 256.633C104.177 256.677 104.122 256.699 104.056 256.699H103.594C103.506 256.699 103.433 256.662 103.374 256.589C103.257 256.45 103.154 256.343 103.066 256.27C102.985 256.189 102.864 256.12 102.703 256.061C102.549 256.002 102.351 255.973 102.109 255.973C101.757 255.973 101.486 256.05 101.295 256.204C101.104 256.351 101.009 256.545 101.009 256.787C101.009 256.941 101.049 257.073 101.13 257.183C101.211 257.286 101.365 257.381 101.592 257.469C101.827 257.557 102.164 257.649 102.604 257.744C103.301 257.891 103.792 258.103 104.078 258.382C104.371 258.653 104.518 259.002 104.518 259.427C104.518 259.742 104.426 260.028 104.243 260.285C104.06 260.542 103.788 260.743 103.429 260.89C103.077 261.037 102.655 261.11 102.164 261.11Z" fill="#808080"/>
<path d="M62.8594 232C62.7461 232 62.6497 231.96 62.5704 231.881C62.4911 231.802 62.4514 231.705 62.4514 231.592V222.786L59.8674 224.775C59.7994 224.832 59.7201 224.86 59.6294 224.86C59.4934 224.86 59.3801 224.798 59.2894 224.673L58.5754 223.755C58.5187 223.664 58.4904 223.579 58.4904 223.5C58.4904 223.364 58.5527 223.251 58.6774 223.16L62.4854 220.219C62.5874 220.14 62.7291 220.1 62.9104 220.1H64.4064C64.5311 220.1 64.6274 220.14 64.6954 220.219C64.7747 220.287 64.8144 220.383 64.8144 220.508V231.592C64.8144 231.705 64.7747 231.802 64.6954 231.881C64.6274 231.96 64.5311 232 64.4064 232H62.8594ZM71.2215 232.187C70.2809 232.187 69.4705 232.028 68.7905 231.711C68.1219 231.394 67.6062 230.974 67.2435 230.453C66.8922 229.932 66.7052 229.371 66.6825 228.77V228.736C66.6825 228.645 66.7165 228.572 66.7845 228.515C66.8525 228.458 66.9375 228.43 67.0395 228.43H68.6205C68.8812 228.43 69.0512 228.543 69.1305 228.77C69.2892 229.269 69.5499 229.637 69.9125 229.875C70.2865 230.113 70.7229 230.232 71.2215 230.232C71.8562 230.232 72.3832 230.039 72.8025 229.654C73.2332 229.269 73.4485 228.73 73.4485 228.039C73.4485 227.427 73.2332 226.928 72.8025 226.543C72.3832 226.158 71.8562 225.965 71.2215 225.965C70.8815 225.965 70.6039 226.01 70.3885 226.101C70.1732 226.192 69.9635 226.316 69.7595 226.475C69.6235 226.577 69.5159 226.651 69.4365 226.696C69.3685 226.73 69.2835 226.747 69.1815 226.747H67.6175C67.5155 226.747 67.4249 226.713 67.3455 226.645C67.2775 226.566 67.2435 226.475 67.2435 226.373L67.8385 220.559C67.8499 220.423 67.8952 220.315 67.9745 220.236C68.0652 220.145 68.1785 220.1 68.3145 220.1H74.7065C74.8199 220.1 74.9162 220.14 74.9955 220.219C75.0749 220.298 75.1145 220.395 75.1145 220.508V221.647C75.1145 221.76 75.0749 221.857 74.9955 221.936C74.9162 222.015 74.8199 222.055 74.7065 222.055H69.7935L69.5215 224.826C70.0769 224.441 70.8192 224.248 71.7485 224.248C72.4852 224.248 73.1652 224.407 73.7885 224.724C74.4232 225.03 74.9275 225.478 75.3015 226.067C75.6755 226.645 75.8625 227.319 75.8625 228.09C75.8625 228.917 75.6699 229.643 75.2845 230.266C74.8992 230.878 74.3552 231.354 73.6525 231.694C72.9612 232.023 72.1509 232.187 71.2215 232.187ZM77.8733 232C77.76 232 77.6636 231.96 77.5843 231.881C77.505 231.802 77.4653 231.705 77.4653 231.592V229.909C77.4653 229.796 77.505 229.699 77.5843 229.62C77.6636 229.529 77.76 229.484 77.8733 229.484H79.5733C79.6866 229.484 79.783 229.529 79.8623 229.62C79.9416 229.699 79.9813 229.796 79.9813 229.909V231.592C79.9813 231.705 79.9416 231.802 79.8623 231.881C79.783 231.96 79.6866 232 79.5733 232H77.8733ZM82.1671 232C82.0538 232 81.9575 231.96 81.8781 231.881C81.7988 231.802 81.7591 231.705 81.7591 231.592V230.725C81.7591 230.419 81.9008 230.153 82.1841 229.926L84.8701 227.257C86.0375 226.339 86.8478 225.625 87.3011 225.115C87.7658 224.594 87.9981 224.084 87.9981 223.585C87.9981 223.052 87.8508 222.633 87.5561 222.327C87.2728 222.021 86.8421 221.868 86.2641 221.868C85.6975 221.868 85.2498 222.038 84.9211 222.378C84.5925 222.707 84.3885 223.137 84.3091 223.67C84.2751 223.806 84.2128 223.908 84.1221 223.976C84.0315 224.033 83.9295 224.061 83.8161 224.061H82.3031C82.2011 224.061 82.1161 224.027 82.0481 223.959C81.9801 223.891 81.9461 223.812 81.9461 223.721C81.9688 223.052 82.1501 222.429 82.4901 221.851C82.8301 221.262 83.3231 220.791 83.9691 220.44C84.6151 220.077 85.3745 219.896 86.2471 219.896C87.1538 219.896 87.9188 220.055 88.5421 220.372C89.1768 220.678 89.6528 221.103 89.9701 221.647C90.2875 222.191 90.4461 222.809 90.4461 223.5C90.4461 224.259 90.2308 224.945 89.8001 225.557C89.3808 226.169 88.7348 226.826 87.8621 227.529L85.4481 229.977H90.2931C90.4178 229.977 90.5141 230.017 90.5821 230.096C90.6615 230.164 90.7011 230.26 90.7011 230.385V231.592C90.7011 231.705 90.6615 231.802 90.5821 231.881C90.5141 231.96 90.4178 232 90.2931 232H82.1671ZM94.7835 226.084C94.0355 226.084 93.4349 225.886 92.9815 225.489C92.5395 225.092 92.2959 224.554 92.2505 223.874C92.2392 223.681 92.2335 223.426 92.2335 223.109C92.2335 222.769 92.2392 222.497 92.2505 222.293C92.2959 221.59 92.5339 221.035 92.9645 220.627C93.3952 220.219 94.0015 220.015 94.7835 220.015C95.5655 220.015 96.1719 220.219 96.6025 220.627C97.0445 221.035 97.2825 221.59 97.3165 222.293C97.3392 222.746 97.3505 223.041 97.3505 223.177C97.3505 223.302 97.3392 223.534 97.3165 223.874C97.2825 224.554 97.0389 225.092 96.5855 225.489C96.1435 225.886 95.5429 226.084 94.7835 226.084ZM93.3895 232C93.2875 232 93.2025 231.972 93.1345 231.915C93.0665 231.847 93.0325 231.762 93.0325 231.66C93.0325 231.592 93.0552 231.53 93.1005 231.473L101.482 220.423C101.572 220.31 101.657 220.23 101.737 220.185C101.816 220.128 101.924 220.1 102.06 220.1H102.961C103.074 220.1 103.159 220.134 103.216 220.202C103.284 220.259 103.318 220.338 103.318 220.44C103.318 220.508 103.295 220.57 103.25 220.627L94.8685 231.677C94.7779 231.79 94.6929 231.875 94.6135 231.932C94.5342 231.977 94.4265 232 94.2905 232H93.3895ZM94.7835 224.826C95.1122 224.826 95.3559 224.73 95.5145 224.537C95.6732 224.333 95.7639 224.084 95.7865 223.789C95.8092 223.404 95.8205 223.166 95.8205 223.075C95.8205 222.95 95.8092 222.718 95.7865 222.378C95.7752 222.083 95.6845 221.84 95.5145 221.647C95.3559 221.443 95.1122 221.341 94.7835 221.341C94.4549 221.341 94.2112 221.443 94.0525 221.647C93.8939 221.84 93.8089 222.083 93.7975 222.378C93.7862 222.548 93.7805 222.78 93.7805 223.075C93.7805 223.358 93.7862 223.596 93.7975 223.789C93.8202 224.084 93.9052 224.333 94.0525 224.537C94.2112 224.73 94.4549 224.826 94.7835 224.826ZM101.567 232.102C100.819 232.102 100.218 231.898 99.7645 231.49C99.3225 231.071 99.0789 230.515 99.0335 229.824C99.0222 229.631 99.0165 229.376 99.0165 229.059C99.0165 228.73 99.0222 228.464 99.0335 228.26C99.0789 227.557 99.3169 227.002 99.7475 226.594C100.178 226.186 100.785 225.982 101.567 225.982C102.349 225.982 102.955 226.186 103.386 226.594C103.828 227.002 104.066 227.557 104.1 228.26C104.122 228.713 104.134 229.002 104.134 229.127C104.134 229.252 104.122 229.484 104.1 229.824C104.054 230.515 103.805 231.071 103.352 231.49C102.91 231.898 102.315 232.102 101.567 232.102ZM101.567 230.776C101.907 230.776 102.15 230.68 102.298 230.487C102.456 230.283 102.547 230.039 102.57 229.756C102.592 229.371 102.604 229.133 102.604 229.042C102.604 228.917 102.592 228.685 102.57 228.345C102.558 228.05 102.468 227.801 102.298 227.597C102.139 227.393 101.895 227.291 101.567 227.291C101.238 227.291 100.994 227.393 100.836 227.597C100.677 227.79 100.586 228.039 100.564 228.345C100.552 228.515 100.547 228.747 100.547 229.042C100.547 229.325 100.552 229.563 100.564 229.756C100.598 230.051 100.688 230.294 100.836 230.487C100.994 230.68 101.238 230.776 101.567 230.776Z" fill="#F4C300"/>
<defs>
<filter id="filter0_dd" x="48.999" y="19.999" width="104.674" height="104.674" filterUnits="userSpaceOnUse" color-interpolation-filters="sRGB">
<feFlood flood-opacity="0" result="BackgroundImageFix"/>
<feColorMatrix in="SourceAlpha" type="matrix" values="0 0 0 0 0 0 0 0 0 0 0 0 0 0 0 0 0 0 127 0"/>
<feOffset dx="5" dy="5"/>
<feGaussianBlur stdDeviation="3.5"/>
<feColorMatrix type="matrix" values="0 0 0 0 0 0 0 0 0 0 0 0 0 0 0 0 0 0 0.05 0"/>
<feBlend mode="normal" in2="BackgroundImageFix" result="effect1_dropShadow"/>
<feColorMatrix in="SourceAlpha" type="matrix" values="0 0 0 0 0 0 0 0 0 0 0 0 0 0 0 0 0 0 127 0"/>
<feOffset dx="-5" dy="-5"/>
<feGaussianBlur stdDeviation="3.5"/>
<feColorMatrix type="matrix" values="0 0 0 0 0 0 0 0 0 0 0 0 0 0 0 0 0 0 0.05 0"/>
<feBlend mode="normal" in2="effect1_dropShadow" result="effect2_dropShadow"/>
<feBlend mode="normal" in="SourceGraphic" in2="effect2_dropShadow" result="shape"/>
</filter>
<filter id="filter1_dd" x="143" y="191" width="104.674" height="104.674" filterUnits="userSpaceOnUse" color-interpolation-filters="sRGB">
<feFlood flood-opacity="0" result="BackgroundImageFix"/>
<feColorMatrix in="SourceAlpha" type="matrix" values="0 0 0 0 0 0 0 0 0 0 0 0 0 0 0 0 0 0 127 0"/>
<feOffset dx="5" dy="5"/>
<feGaussianBlur stdDeviation="3.5"/>
<feColorMatrix type="matrix" values="0 0 0 0 0 0 0 0 0 0 0 0 0 0 0 0 0 0 0.05 0"/>
<feBlend mode="normal" in2="BackgroundImageFix" result="effect1_dropShadow"/>
<feColorMatrix in="SourceAlpha" type="matrix" values="0 0 0 0 0 0 0 0 0 0 0 0 0 0 0 0 0 0 127 0"/>
<feOffset dx="-5" dy="-5"/>
<feGaussianBlur stdDeviation="3.5"/>
<feColorMatrix type="matrix" values="0 0 0 0 0 0 0 0 0 0 0 0 0 0 0 0 0 0 0.05 0"/>
<feBlend mode="normal" in2="effect1_dropShadow" result="effect2_dropShadow"/>
<feBlend mode="normal" in="SourceGraphic" in2="effect2_dropShadow" result="shape"/>
</filter>
<filter id="filter2_dd" x="33.0005" y="192" width="96" height="96" filterUnits="userSpaceOnUse" color-interpolation-filters="sRGB">
<feFlood flood-opacity="0" result="BackgroundImageFix"/>
<feColorMatrix in="SourceAlpha" type="matrix" values="0 0 0 0 0 0 0 0 0 0 0 0 0 0 0 0 0 0 127 0"/>
<feOffset dx="5" dy="5"/>
<feGaussianBlur stdDeviation="3.5"/>
<feColorMatrix type="matrix" values="0 0 0 0 0 0 0 0 0 0 0 0 0 0 0 0 0 0 0.05 0"/>
<feBlend mode="normal" in2="BackgroundImageFix" result="effect1_dropShadow"/>
<feColorMatrix in="SourceAlpha" type="matrix" values="0 0 0 0 0 0 0 0 0 0 0 0 0 0 0 0 0 0 127 0"/>
<feOffset dx="-5" dy="-5"/>
<feGaussianBlur stdDeviation="3.5"/>
<feColorMatrix type="matrix" values="0 0 0 0 0 0 0 0 0 0 0 0 0 0 0 0 0 0 0.05 0"/>
<feBlend mode="normal" in2="effect1_dropShadow" result="effect2_dropShadow"/>
<feBlend mode="normal" in="SourceGraphic" in2="effect2_dropShadow" result="shape"/>
</filter>
</defs>
</svg>
