<svg width="50" height="50" viewBox="0 0 50 50" fill="none" xmlns="http://www.w3.org/2000/svg">
<g clip-path="url(#clip0)">
<path d="M27.7503 29.5121L25.2597 30.8121C22.7003 32.1777 19.4597 31.5277 17.569 29.2621L16.344 27.7933C15.3065 26.5433 15.3909 24.7339 16.5409 23.587L24.1722 15.9557L22.6691 15.0714C22.4284 14.9307 22.1534 14.8557 21.8753 14.8557H16.2003L17.0221 13.212C17.4096 12.4401 17.094 11.5026 16.3221 11.1151L11.6346 8.77131C10.8658 8.38693 9.92833 8.69944 9.54082 9.47132L0.165749 28.2215C-0.221754 28.9933 0.0938735 29.9308 0.865755 30.3184L5.55329 32.6621C5.77517 32.7746 6.01267 32.8246 6.25017 32.8246C6.82518 32.8246 7.37518 32.5059 7.65018 31.9621L8.18144 30.9027L20.2972 39.8622C21.6815 40.8841 23.3316 41.3934 24.9784 41.3934C26.6535 41.3934 28.3222 40.8653 29.7066 39.8122L35.1441 35.6371L27.7503 29.5121Z" fill="white"/>
<path d="M49.8346 28.2215L40.4595 9.47139C40.072 8.69638 39.1377 8.38701 38.3627 8.77139L33.6751 11.1152C32.9032 11.5027 32.5907 12.4402 32.9751 13.212L33.8001 14.8558H29.6907L18.75 25.7934L19.9719 27.2622C20.9156 28.3934 22.525 28.7247 23.8032 28.0465L28.1501 25.7809L37.697 33.6903L41.6846 30.6153L42.3564 31.9591C42.6314 32.5059 43.1846 32.8216 43.7533 32.8216C43.9877 32.8216 44.2252 32.7684 44.4533 32.6559L49.1409 30.3122C49.9096 29.9309 50.219 28.9934 49.8346 28.2215Z" fill="white"/>
</g>
<defs>
<clipPath id="clip0">
<rect width="50" height="50" fill="white"/>
</clipPath>
</defs>
</svg>
