<svg width="9" height="12" viewBox="0 0 9 12" fill="none" xmlns="http://www.w3.org/2000/svg">
<path d="M7.27579 5.36842H1.94021V3C1.94021 1.86818 2.88312 0.947368 4.04211 0.947368C5.20109 0.947368 6.144 1.86818 6.144 3V3.94737C6.144 4.20897 6.36117 4.42105 6.62905 4.42105C6.89693 4.42105 7.11411 4.20897 7.11411 3.94737V3C7.11411 1.3458 5.73601 0 4.04211 0C2.3482 0 0.970105 1.3458 0.970105 3V5.36842H0.808421C0.361946 5.36842 0 5.72188 0 6.15789V11.2105C0 11.6465 0.361946 12 0.808421 12H7.27579C7.72226 12 8.08421 11.6465 8.08421 11.2105V6.15789C8.08421 5.72188 7.72226 5.36842 7.27579 5.36842ZM3.072 8.05263C3.072 7.5294 3.50632 7.10526 4.04211 7.10526C4.57786 7.10526 5.01221 7.5294 5.01221 8.05263C5.01221 8.40325 4.81706 8.70913 4.52716 8.87296V10.2632H3.55705V8.87296C3.26715 8.70913 3.072 8.40325 3.072 8.05263Z" fill="#A8A8A8"/>
</svg>
