<svg width="50" height="50" viewBox="0 0 50 50" fill="none" xmlns="http://www.w3.org/2000/svg">
<g clip-path="url(#clip0)">
<path d="M24.9088 14.945C28.1333 14.945 30.7473 12.3311 30.7473 9.10655C30.7473 5.88204 28.1333 3.26807 24.9088 3.26807C21.6843 3.26807 19.0703 5.88204 19.0703 9.10655C19.0703 12.3311 21.6843 14.945 24.9088 14.945Z" fill="white"/>
<path d="M45.3473 25.1693L39.9058 24.0342C38.0519 23.6459 36.2216 24.4956 35.2539 26.0062C34.3141 25.5234 33.3035 25.1071 32.2284 24.7617V21.5259C32.2306 19.0777 30.2264 17.0757 27.7869 17.0757H22.223C19.7705 17.0757 17.775 19.0777 17.775 21.5259V24.7788C16.7107 25.1178 15.7108 25.5341 14.7645 26.019C13.7969 24.502 11.9644 23.6459 10.1083 24.0342L4.66243 25.1693C2.27209 25.6693 0.720709 28.0403 1.22066 30.4392L2.58752 36.9686C3.0832 39.3611 5.45633 40.9124 7.84886 40.4125L9.57183 40.052C10.4344 41.3265 11.6274 42.496 13.1552 43.4959C16.3372 45.5815 20.5407 46.7316 25.0016 46.7316C31.8272 46.7316 37.7064 43.9873 40.4143 40.0455L42.1652 40.4125C44.5556 40.9102 46.9287 39.3611 47.4244 36.9686L48.7933 30.4392C49.2911 28.0403 47.7397 25.6693 45.3473 25.1693ZM24.9994 44.5022C20.9698 44.5022 17.1933 43.4873 14.376 41.6312C13.4104 41.0004 12.61 40.2988 11.9685 39.5478L13.2882 39.2709C15.6828 38.7732 17.2342 36.4021 16.7342 34.0075L15.509 28.1368C16.2235 27.7527 16.9745 27.4158 17.7727 27.1283V28.1991C17.7727 30.643 19.7725 32.645 22.2207 32.645H27.7846C30.2264 32.645 32.2263 30.6409 32.2263 28.1991V27.0725C33.0394 27.3622 33.8033 27.6948 34.5115 28.0724L33.269 34.0097C32.7734 36.4043 34.3226 38.7754 36.7172 39.2731L38.0496 39.552C35.565 42.4939 30.6491 44.5022 24.9994 44.5022Z" fill="white"/>
<path d="M44.1627 22.6203C47.3872 22.6203 50.0012 20.0063 50.0012 16.7818C50.0012 13.5573 47.3872 10.9434 44.1627 10.9434C40.9382 10.9434 38.3242 13.5573 38.3242 16.7818C38.3242 20.0063 40.9382 22.6203 44.1627 22.6203Z" fill="white"/>
<path d="M7.03641 22.498C10.1949 21.8371 12.2119 18.7409 11.5596 15.5845C10.8944 12.4304 7.80454 10.4048 4.64388 11.0657C1.48968 11.7244 -0.535892 14.8185 0.125008 17.9749C0.783819 21.1334 3.87793 23.1568 7.03641 22.498Z" fill="white"/>
</g>
<defs>
<clipPath id="clip0">
<rect width="50" height="50" fill="white"/>
</clipPath>
</defs>
</svg>
