<svg width="233" height="49" viewBox="0 0 233 49" fill="none" xmlns="http://www.w3.org/2000/svg">
<path d="M44.2191 44.1102L48.9138 17.4853C48.9591 17.2284 48.9874 16.9687 48.9984 16.708C49.0681 13.6894 46.8983 11.082 43.9146 10.5989L34.8551 9.00188L35.1004 44.1102H44.2191Z" fill="white"/>
<path d="M9.35012 42.9442C9.50721 43.5957 10.0348 44.0929 10.6951 44.2116L37.3576 48.9096C39.0381 49.2027 40.7636 48.7586 42.0932 47.6909C43.4228 46.6233 44.2277 45.0353 44.3023 43.3329C44.369 40.4468 42.3798 37.9179 39.5569 37.2998L32.0877 39.3953H32.0961L38.821 40.5867C39.571 40.7184 40.2224 41.179 40.5959 41.8419C40.9695 42.5047 41.0259 43.3 40.7496 44.0088C40.2711 45.1505 39.056 45.7998 37.8397 45.5636L17.4622 41.9725L9.35012 42.9442Z" fill="#C4C4C4"/>
<path d="M32.0981 39.3953L38.8229 40.5867C39.5729 40.7184 40.2243 41.179 40.5979 41.8419C40.9715 42.5048 41.0279 43.3 40.7516 44.0088C40.2731 45.1505 39.058 45.7998 37.8417 45.5636L17.4642 41.9725L32.0981 39.3953Z" fill="black"/>
<path d="M38.207 28.0229L33.5064 1.39466C33.3382 0.479355 32.465 -0.131185 31.5465 0.0241267L5.08955 4.68411C2.10367 5.16758 -0.0678582 7.77669 0.00151809 10.7974C0.0130252 11.057 0.0412822 11.3155 0.0861091 11.5714L4.78672 38.1997L38.207 28.0229Z" fill="#E23744"/>
<path d="M10.6223 8.84471C10.6719 8.84469 10.7215 8.84045 10.7704 8.83204L29.9306 5.45724C30.363 5.35072 30.6387 4.92755 30.561 4.48951C30.4834 4.05146 30.079 3.74859 29.6363 3.79688L10.4768 7.16745C10.0447 7.24307 9.7422 7.63611 9.78007 8.07269C9.81794 8.50926 10.1836 8.84447 10.6223 8.84471Z" fill="black"/>
<path d="M14.6893 12.4156C14.739 12.4156 14.7885 12.4111 14.8373 12.402L27.3328 10.2043C27.7824 10.1132 28.0774 9.6808 27.9978 9.22953C27.9182 8.77826 27.493 8.47262 27.0393 8.54055L14.543 10.7375C14.1083 10.8108 13.803 11.2053 13.8412 11.6439C13.8795 12.0826 14.2485 12.4184 14.6893 12.4156V12.4156Z" fill="black"/>
<path d="M12.9226 16.1896L30.4198 13.102C30.88 13.0208 31.3189 13.3277 31.4002 13.7873L32.8721 22.1102C32.9534 22.5699 32.6462 23.0083 32.1861 23.0895L14.6888 26.1771C14.2286 26.2583 13.7897 25.9514 13.7084 25.4918L12.2366 17.1689C12.1553 16.7092 12.4624 16.2708 12.9226 16.1896Z" fill="white"/>
<path d="M0.00610885 10.7932C0.0161804 11.054 0.0444472 11.3137 0.0906999 11.5706L4.79385 38.1955L11.3157 36.2098L7.53454 14.7984L6.63789 9.74545L5.72433 4.57426L5.08992 4.68411C2.10754 5.16958 -0.0610686 7.77555 0.00610885 10.7932V10.7932Z" fill="#E23744"/>
<path d="M9.79147 31.309L36.2509 26.6532C36.3487 26.6364 36.4478 26.6279 36.547 26.6279C37.4237 26.6301 38.1535 27.301 38.2283 28.1736C38.3031 29.0462 37.6982 29.8313 36.8346 29.9824L10.1806 34.6719C9.43122 34.8075 8.78181 35.2707 8.41016 35.9346C8.03852 36.5986 7.98358 37.3938 8.2604 38.1025C8.73627 39.2416 9.9496 39.8883 11.1618 39.6488L37.7143 34.9761C37.8121 34.9593 37.9112 34.9508 38.0104 34.9508C38.8888 34.9486 39.6227 35.6183 39.6998 36.4923C39.7769 37.3663 39.1716 38.1539 38.3065 38.3053L11.644 42.9948C9.96464 43.2889 8.23987 42.8464 6.91028 41.7803C5.58069 40.7143 4.77506 39.1279 4.6992 37.4265C4.63281 34.4045 6.80481 31.7952 9.79147 31.309V31.309Z" fill="#C03A2B"/>
<path d="M8.26104 38.1025C8.73691 39.2416 9.95023 39.8883 11.1624 39.6488L37.715 34.9761L36.8352 29.9824L10.1812 34.6719C9.43186 34.8075 8.78244 35.2707 8.4108 35.9347C8.03915 36.5986 7.98422 37.3938 8.26104 38.1025V38.1025Z" fill="white"/>
<rect x="64" y="1" width="1" height="47" rx="0.5" fill="black"/>
<path d="M89.93 46.3C88.03 46.3 86.4 46.02 85.04 45.46C83.68 44.9 82.65 44.17 81.95 43.27C81.27 42.35 80.91 41.35 80.87 40.27C80.87 40.11 80.93 39.97 81.05 39.85C81.19 39.71 81.35 39.64 81.53 39.64H85.31C85.55 39.64 85.74 39.69 85.88 39.79C86.04 39.87 86.2 40 86.36 40.18C86.62 40.7 87.04 41.13 87.62 41.47C88.2 41.81 88.97 41.98 89.93 41.98C91.07 41.98 91.94 41.8 92.54 41.44C93.14 41.08 93.44 40.59 93.44 39.97C93.44 39.53 93.28 39.17 92.96 38.89C92.66 38.61 92.18 38.36 91.52 38.14C90.86 37.92 89.88 37.67 88.58 37.39C86.18 36.89 84.38 36.16 83.18 35.2C82 34.22 81.41 32.83 81.41 31.03C81.41 29.81 81.75 28.72 82.43 27.76C83.11 26.8 84.08 26.05 85.34 25.51C86.6 24.97 88.07 24.7 89.75 24.7C91.49 24.7 93 25 94.28 25.6C95.56 26.2 96.53 26.96 97.19 27.88C97.87 28.78 98.23 29.67 98.27 30.55C98.27 30.73 98.21 30.88 98.09 31C97.97 31.12 97.82 31.18 97.64 31.18H93.68C93.44 31.18 93.24 31.14 93.08 31.06C92.94 30.98 92.81 30.85 92.69 30.67C92.57 30.21 92.24 29.82 91.7 29.5C91.18 29.18 90.53 29.02 89.75 29.02C88.85 29.02 88.16 29.18 87.68 29.5C87.2 29.82 86.96 30.29 86.96 30.91C86.96 31.33 87.09 31.68 87.35 31.96C87.63 32.24 88.07 32.5 88.67 32.74C89.29 32.96 90.17 33.19 91.31 33.43C93.17 33.77 94.65 34.2 95.75 34.72C96.87 35.22 97.69 35.88 98.21 36.7C98.73 37.5 98.99 38.51 98.99 39.73C98.99 41.07 98.6 42.24 97.82 43.24C97.06 44.22 95.99 44.98 94.61 45.52C93.25 46.04 91.69 46.3 89.93 46.3ZM109.043 46.3C106.563 46.3 104.653 45.71 103.313 44.53C101.973 43.35 101.243 41.69 101.123 39.55C101.103 39.29 101.093 38.84 101.093 38.2C101.093 37.56 101.103 37.11 101.123 36.85C101.243 34.73 101.993 33.08 103.373 31.9C104.753 30.7 106.643 30.1 109.043 30.1C111.463 30.1 113.363 30.7 114.743 31.9C116.123 33.08 116.873 34.73 116.993 36.85C117.013 37.11 117.023 37.56 117.023 38.2C117.023 38.84 117.013 39.29 116.993 39.55C116.873 41.69 116.143 43.35 114.803 44.53C113.463 45.71 111.543 46.3 109.043 46.3ZM109.043 42.64C109.923 42.64 110.573 42.38 110.993 41.86C111.413 41.32 111.653 40.5 111.713 39.4C111.733 39.2 111.743 38.8 111.743 38.2C111.743 37.6 111.733 37.2 111.713 37C111.653 35.92 111.403 35.11 110.963 34.57C110.543 34.03 109.903 33.76 109.043 33.76C107.383 33.76 106.503 34.84 106.403 37L106.373 38.2L106.403 39.4C106.443 40.5 106.673 41.32 107.093 41.86C107.533 42.38 108.183 42.64 109.043 42.64ZM120.752 46C120.532 46 120.352 45.93 120.212 45.79C120.072 45.65 120.002 45.47 120.002 45.25V31.15C120.002 30.93 120.072 30.75 120.212 30.61C120.352 30.47 120.532 30.4 120.752 30.4H124.022C124.242 30.4 124.422 30.47 124.562 30.61C124.702 30.75 124.772 30.93 124.772 31.15V32.17C125.232 31.57 125.842 31.08 126.602 30.7C127.382 30.3 128.252 30.1 129.212 30.1C131.412 30.1 132.932 30.96 133.772 32.68C134.252 31.92 134.922 31.3 135.782 30.82C136.642 30.34 137.562 30.1 138.542 30.1C140.182 30.1 141.512 30.66 142.532 31.78C143.572 32.88 144.092 34.53 144.092 36.73V45.25C144.092 45.45 144.022 45.63 143.882 45.79C143.742 45.93 143.562 46 143.342 46H139.862C139.642 46 139.452 45.93 139.292 45.79C139.152 45.65 139.082 45.47 139.082 45.25V36.94C139.082 35.94 138.872 35.22 138.452 34.78C138.052 34.34 137.502 34.12 136.802 34.12C136.162 34.12 135.632 34.35 135.212 34.81C134.792 35.25 134.582 35.96 134.582 36.94V45.25C134.582 45.45 134.512 45.63 134.372 45.79C134.232 45.93 134.052 46 133.832 46H130.352C130.132 46 129.952 45.93 129.812 45.79C129.672 45.65 129.602 45.47 129.602 45.25V36.94C129.602 35.96 129.382 35.25 128.942 34.81C128.522 34.35 127.982 34.12 127.322 34.12C126.682 34.12 126.142 34.35 125.702 34.81C125.282 35.25 125.072 35.95 125.072 36.91V45.25C125.072 45.45 125.002 45.63 124.862 45.79C124.722 45.93 124.542 46 124.322 46H120.752ZM152.163 46.3C151.103 46.3 150.133 46.1 149.253 45.7C148.393 45.28 147.713 44.72 147.213 44.02C146.733 43.3 146.493 42.51 146.493 41.65C146.493 40.27 147.053 39.16 148.173 38.32C149.313 37.48 150.873 36.9 152.853 36.58L156.603 36.01V35.59C156.603 34.83 156.443 34.27 156.123 33.91C155.803 33.55 155.263 33.37 154.503 33.37C154.043 33.37 153.663 33.45 153.363 33.61C153.063 33.77 152.753 33.99 152.433 34.27C152.153 34.51 151.943 34.67 151.803 34.75C151.743 34.91 151.633 34.99 151.473 34.99H148.203C148.003 34.99 147.833 34.93 147.693 34.81C147.573 34.67 147.523 34.51 147.543 34.33C147.563 33.79 147.823 33.19 148.323 32.53C148.843 31.87 149.623 31.3 150.663 30.82C151.723 30.34 153.023 30.1 154.563 30.1C157.023 30.1 158.843 30.65 160.023 31.75C161.203 32.83 161.793 34.29 161.793 36.13V45.25C161.793 45.45 161.723 45.63 161.583 45.79C161.443 45.93 161.263 46 161.043 46H157.563C157.363 46 157.183 45.93 157.023 45.79C156.883 45.63 156.813 45.45 156.813 45.25V44.2C156.373 44.82 155.753 45.33 154.953 45.73C154.173 46.11 153.243 46.3 152.163 46.3ZM153.573 42.88C154.493 42.88 155.233 42.58 155.793 41.98C156.373 41.38 156.663 40.5 156.663 39.34V38.92L154.113 39.37C152.313 39.69 151.413 40.32 151.413 41.26C151.413 41.76 151.623 42.16 152.043 42.46C152.463 42.74 152.973 42.88 153.573 42.88ZM171.718 46C171.518 46 171.338 45.93 171.178 45.79C171.038 45.63 170.968 45.45 170.968 45.25V30.97L166.858 34.12C166.718 34.24 166.568 34.3 166.408 34.3C166.188 34.3 165.988 34.18 165.808 33.94L164.038 31.63C163.938 31.47 163.888 31.32 163.888 31.18C163.888 30.9 164.008 30.69 164.248 30.55L171.148 25.21C171.368 25.07 171.608 25 171.868 25H175.618C175.838 25 176.018 25.07 176.158 25.21C176.298 25.35 176.368 25.53 176.368 25.75V45.25C176.368 45.45 176.298 45.63 176.158 45.79C176.018 45.93 175.838 46 175.618 46H171.718ZM187.47 46.3C184.99 46.3 183.08 45.71 181.74 44.53C180.4 43.35 179.67 41.69 179.55 39.55C179.53 39.29 179.52 38.84 179.52 38.2C179.52 37.56 179.53 37.11 179.55 36.85C179.67 34.73 180.42 33.08 181.8 31.9C183.18 30.7 185.07 30.1 187.47 30.1C189.89 30.1 191.79 30.7 193.17 31.9C194.55 33.08 195.3 34.73 195.42 36.85C195.44 37.11 195.45 37.56 195.45 38.2C195.45 38.84 195.44 39.29 195.42 39.55C195.3 41.69 194.57 43.35 193.23 44.53C191.89 45.71 189.97 46.3 187.47 46.3ZM187.47 42.64C188.35 42.64 189 42.38 189.42 41.86C189.84 41.32 190.08 40.5 190.14 39.4C190.16 39.2 190.17 38.8 190.17 38.2C190.17 37.6 190.16 37.2 190.14 37C190.08 35.92 189.83 35.11 189.39 34.57C188.97 34.03 188.33 33.76 187.47 33.76C185.81 33.76 184.93 34.84 184.83 37L184.8 38.2L184.83 39.4C184.87 40.5 185.1 41.32 185.52 41.86C185.96 42.38 186.61 42.64 187.47 42.64ZM199.18 46C198.96 46 198.78 45.93 198.64 45.79C198.5 45.65 198.43 45.47 198.43 45.25V31.15C198.43 30.93 198.5 30.75 198.64 30.61C198.78 30.47 198.96 30.4 199.18 30.4H202.63C202.85 30.4 203.03 30.47 203.17 30.61C203.33 30.75 203.41 30.93 203.41 31.15V32.29C203.95 31.63 204.64 31.1 205.48 30.7C206.34 30.3 207.31 30.1 208.39 30.1C210.15 30.1 211.58 30.7 212.68 31.9C213.78 33.08 214.33 34.74 214.33 36.88V45.25C214.33 45.45 214.26 45.63 214.12 45.79C213.98 45.93 213.8 46 213.58 46H209.8C209.6 46 209.42 45.93 209.26 45.79C209.12 45.63 209.05 45.45 209.05 45.25V37.06C209.05 36.12 208.82 35.4 208.36 34.9C207.9 34.38 207.24 34.12 206.38 34.12C205.54 34.12 204.88 34.38 204.4 34.9C203.92 35.4 203.68 36.12 203.68 37.06V45.25C203.68 45.45 203.61 45.63 203.47 45.79C203.33 45.93 203.15 46 202.93 46H199.18ZM224.248 46C224.048 46 223.868 45.93 223.708 45.79C223.568 45.63 223.498 45.45 223.498 45.25V30.97L219.388 34.12C219.248 34.24 219.098 34.3 218.938 34.3C218.718 34.3 218.518 34.18 218.338 33.94L216.568 31.63C216.468 31.47 216.418 31.32 216.418 31.18C216.418 30.9 216.538 30.69 216.778 30.55L223.678 25.21C223.898 25.07 224.138 25 224.398 25H228.148C228.368 25 228.548 25.07 228.688 25.21C228.828 25.35 228.898 25.53 228.898 25.75V45.25C228.898 45.45 228.828 45.63 228.688 45.79C228.548 45.93 228.368 46 228.148 46H224.248Z" fill="black"/>
<path d="M81.17 13C81.0833 13 81.0097 12.974 80.949 12.922C80.897 12.8613 80.871 12.7877 80.871 12.701V11.765C80.871 11.6783 80.897 11.609 80.949 11.557C81.0097 11.4963 81.0833 11.466 81.17 11.466H82.106C82.1927 11.466 82.2663 11.4963 82.327 11.557C82.3877 11.609 82.418 11.6783 82.418 11.765V12.701C82.418 12.7877 82.3877 12.8613 82.327 12.922C82.2663 12.974 82.1927 13 82.106 13H81.17ZM84.4454 13C84.3587 13 84.2851 12.974 84.2244 12.922C84.1724 12.8613 84.1464 12.7877 84.1464 12.701V11.765C84.1464 11.6783 84.1724 11.609 84.2244 11.557C84.2851 11.4963 84.3587 11.466 84.4454 11.466H85.3814C85.4681 11.466 85.5417 11.4963 85.6024 11.557C85.6631 11.609 85.6934 11.6783 85.6934 11.765V12.701C85.6934 12.7877 85.6631 12.8613 85.6024 12.922C85.5417 12.974 85.4681 13 85.3814 13H84.4454ZM87.7208 13C87.6341 13 87.5604 12.974 87.4998 12.922C87.4478 12.8613 87.4218 12.7877 87.4218 12.701V11.765C87.4218 11.6783 87.4478 11.609 87.4998 11.557C87.5604 11.4963 87.6341 11.466 87.7208 11.466H88.6568C88.7434 11.466 88.8171 11.4963 88.8778 11.557C88.9384 11.609 88.9688 11.6783 88.9688 11.765V12.701C88.9688 12.7877 88.9384 12.8613 88.8778 12.922C88.8171 12.974 88.7434 13 88.6568 13H87.7208ZM92.6732 13.13C92.2485 13.13 91.8542 13.0433 91.4902 12.87C91.1262 12.6967 90.8358 12.4627 90.6192 12.168C90.4112 11.8647 90.3072 11.531 90.3072 11.167C90.3072 10.595 90.5412 10.127 91.0092 9.763C91.4858 9.39033 92.1272 9.14767 92.9332 9.035L94.8702 8.762V8.385C94.8702 7.501 94.3632 7.059 93.3492 7.059C92.9678 7.059 92.6558 7.14133 92.4132 7.306C92.1705 7.462 91.9885 7.64833 91.8672 7.865C91.8412 7.943 91.8065 7.99933 91.7632 8.034C91.7285 8.06867 91.6765 8.086 91.6072 8.086H91.0482C90.9702 8.086 90.9008 8.06 90.8402 8.008C90.7882 7.94733 90.7622 7.878 90.7622 7.8C90.7708 7.592 90.8662 7.358 91.0482 7.098C91.2388 6.82933 91.5292 6.59967 91.9192 6.409C92.3092 6.20967 92.7902 6.11 93.3622 6.11C94.3328 6.11 95.0305 6.33967 95.4552 6.799C95.8798 7.24967 96.0922 7.813 96.0922 8.489V12.701C96.0922 12.7877 96.0618 12.8613 96.0012 12.922C95.9492 12.974 95.8798 13 95.7932 13H95.1952C95.1085 13 95.0348 12.974 94.9742 12.922C94.9222 12.8613 94.8962 12.7877 94.8962 12.701V12.142C94.7055 12.4193 94.4282 12.6533 94.0642 12.844C93.7002 13.0347 93.2365 13.13 92.6732 13.13ZM92.9462 12.155C93.5095 12.155 93.9688 11.973 94.3242 11.609C94.6882 11.2363 94.8702 10.7033 94.8702 10.01V9.646L93.3622 9.867C92.7468 9.95367 92.2832 10.101 91.9712 10.309C91.6592 10.5083 91.5032 10.764 91.5032 11.076C91.5032 11.4227 91.6462 11.6913 91.9322 11.882C92.2182 12.064 92.5562 12.155 92.9462 12.155ZM104.489 13.13C103.553 13.13 102.842 12.805 102.357 12.155V12.701C102.357 12.7877 102.326 12.8613 102.266 12.922C102.214 12.974 102.144 13 102.058 13H101.46C101.373 13 101.299 12.974 101.239 12.922C101.187 12.8613 101.161 12.7877 101.161 12.701V4.069C101.161 3.98233 101.187 3.913 101.239 3.861C101.299 3.80033 101.373 3.77 101.46 3.77H102.097C102.183 3.77 102.253 3.80033 102.305 3.861C102.357 3.913 102.383 3.98233 102.383 4.069V7.059C102.894 6.42633 103.596 6.11 104.489 6.11C105.39 6.11 106.07 6.409 106.53 7.007C106.989 7.59633 107.236 8.33733 107.271 9.23C107.279 9.32533 107.284 9.45533 107.284 9.62C107.284 9.78467 107.279 9.91467 107.271 10.01C107.236 10.9113 106.989 11.6567 106.53 12.246C106.07 12.8353 105.39 13.13 104.489 13.13ZM104.216 12.077C104.831 12.077 105.277 11.8863 105.555 11.505C105.841 11.1237 105.997 10.621 106.023 9.997C106.031 9.91033 106.036 9.78467 106.036 9.62C106.036 7.982 105.429 7.163 104.216 7.163C103.635 7.163 103.189 7.35367 102.877 7.735C102.565 8.11633 102.4 8.56267 102.383 9.074L102.37 9.581L102.383 10.075C102.409 10.621 102.569 11.0933 102.864 11.492C103.167 11.882 103.618 12.077 104.216 12.077ZM111.583 13.13C110.69 13.13 109.975 12.857 109.438 12.311C108.909 11.7563 108.619 11.0023 108.567 10.049L108.554 9.607L108.567 9.178C108.628 8.242 108.922 7.49667 109.451 6.942C109.988 6.38733 110.695 6.11 111.57 6.11C112.532 6.11 113.277 6.41767 113.806 7.033C114.335 7.63967 114.599 8.463 114.599 9.503V9.724C114.599 9.81067 114.569 9.88433 114.508 9.945C114.456 9.997 114.387 10.023 114.3 10.023H109.802V10.14C109.828 10.7033 109.997 11.1843 110.309 11.583C110.63 11.973 111.05 12.168 111.57 12.168C111.969 12.168 112.294 12.09 112.545 11.934C112.805 11.7693 112.996 11.6003 113.117 11.427C113.195 11.323 113.251 11.2623 113.286 11.245C113.329 11.219 113.403 11.206 113.507 11.206H114.144C114.222 11.206 114.287 11.2277 114.339 11.271C114.391 11.3143 114.417 11.375 114.417 11.453C114.417 11.6437 114.296 11.8733 114.053 12.142C113.819 12.4107 113.485 12.6447 113.052 12.844C112.627 13.0347 112.138 13.13 111.583 13.13ZM113.364 9.126V9.087C113.364 8.489 113.199 8.00367 112.87 7.631C112.549 7.24967 112.116 7.059 111.57 7.059C111.024 7.059 110.591 7.24967 110.27 7.631C109.958 8.00367 109.802 8.489 109.802 9.087V9.126H113.364ZM118.754 13C117.385 13 116.7 12.2373 116.7 10.712V7.28H115.686C115.6 7.28 115.526 7.254 115.465 7.202C115.413 7.14133 115.387 7.06767 115.387 6.981V6.539C115.387 6.45233 115.413 6.383 115.465 6.331C115.526 6.27033 115.6 6.24 115.686 6.24H116.7V4.069C116.7 3.98233 116.726 3.913 116.778 3.861C116.839 3.80033 116.913 3.77 116.999 3.77H117.61C117.697 3.77 117.766 3.80033 117.818 3.861C117.879 3.913 117.909 3.98233 117.909 4.069V6.24H119.521C119.608 6.24 119.677 6.27033 119.729 6.331C119.79 6.383 119.82 6.45233 119.82 6.539V6.981C119.82 7.06767 119.79 7.14133 119.729 7.202C119.677 7.254 119.608 7.28 119.521 7.28H117.909V10.621C117.909 11.0543 117.983 11.3837 118.13 11.609C118.278 11.8257 118.52 11.934 118.858 11.934H119.651C119.738 11.934 119.807 11.9643 119.859 12.025C119.92 12.077 119.95 12.1463 119.95 12.233V12.701C119.95 12.7877 119.92 12.8613 119.859 12.922C119.807 12.974 119.738 13 119.651 13H118.754ZM123.832 13C122.463 13 121.778 12.2373 121.778 10.712V7.28H120.764C120.678 7.28 120.604 7.254 120.543 7.202C120.491 7.14133 120.465 7.06767 120.465 6.981V6.539C120.465 6.45233 120.491 6.383 120.543 6.331C120.604 6.27033 120.678 6.24 120.764 6.24H121.778V4.069C121.778 3.98233 121.804 3.913 121.856 3.861C121.917 3.80033 121.991 3.77 122.077 3.77H122.688C122.775 3.77 122.844 3.80033 122.896 3.861C122.957 3.913 122.987 3.98233 122.987 4.069V6.24H124.599C124.686 6.24 124.755 6.27033 124.807 6.331C124.868 6.383 124.898 6.45233 124.898 6.539V6.981C124.898 7.06767 124.868 7.14133 124.807 7.202C124.755 7.254 124.686 7.28 124.599 7.28H122.987V10.621C122.987 11.0543 123.061 11.3837 123.208 11.609C123.356 11.8257 123.598 11.934 123.936 11.934H124.729C124.816 11.934 124.885 11.9643 124.937 12.025C124.998 12.077 125.028 12.1463 125.028 12.233V12.701C125.028 12.7877 124.998 12.8613 124.937 12.922C124.885 12.974 124.816 13 124.729 13H123.832ZM128.976 13.13C128.083 13.13 127.368 12.857 126.831 12.311C126.302 11.7563 126.012 11.0023 125.96 10.049L125.947 9.607L125.96 9.178C126.02 8.242 126.315 7.49667 126.844 6.942C127.381 6.38733 128.087 6.11 128.963 6.11C129.925 6.11 130.67 6.41767 131.199 7.033C131.727 7.63967 131.992 8.463 131.992 9.503V9.724C131.992 9.81067 131.961 9.88433 131.901 9.945C131.849 9.997 131.779 10.023 131.693 10.023H127.195V10.14C127.221 10.7033 127.39 11.1843 127.702 11.583C128.022 11.973 128.443 12.168 128.963 12.168C129.361 12.168 129.686 12.09 129.938 11.934C130.198 11.7693 130.388 11.6003 130.51 11.427C130.588 11.323 130.644 11.2623 130.679 11.245C130.722 11.219 130.796 11.206 130.9 11.206H131.537C131.615 11.206 131.68 11.2277 131.732 11.271C131.784 11.3143 131.81 11.375 131.81 11.453C131.81 11.6437 131.688 11.8733 131.446 12.142C131.212 12.4107 130.878 12.6447 130.445 12.844C130.02 13.0347 129.53 13.13 128.976 13.13ZM130.757 9.126V9.087C130.757 8.489 130.592 8.00367 130.263 7.631C129.942 7.24967 129.509 7.059 128.963 7.059C128.417 7.059 127.983 7.24967 127.663 7.631C127.351 8.00367 127.195 8.489 127.195 9.087V9.126H130.757ZM133.845 13C133.758 13 133.685 12.974 133.624 12.922C133.572 12.8613 133.546 12.7877 133.546 12.701V6.552C133.546 6.46533 133.572 6.39167 133.624 6.331C133.685 6.27033 133.758 6.24 133.845 6.24H134.443C134.53 6.24 134.603 6.27033 134.664 6.331C134.725 6.39167 134.755 6.46533 134.755 6.552V7.124C135.11 6.53467 135.717 6.24 136.575 6.24H137.082C137.169 6.24 137.238 6.27033 137.29 6.331C137.351 6.383 137.381 6.45233 137.381 6.539V7.072C137.381 7.15867 137.351 7.228 137.29 7.28C137.238 7.332 137.169 7.358 137.082 7.358H136.302C135.834 7.358 135.466 7.49667 135.197 7.774C134.928 8.04267 134.794 8.411 134.794 8.879V12.701C134.794 12.7877 134.764 12.8613 134.703 12.922C134.642 12.974 134.569 13 134.482 13H133.845ZM141.678 13C141.592 13 141.518 12.974 141.457 12.922C141.405 12.8613 141.379 12.7877 141.379 12.701V4.069C141.379 3.98233 141.405 3.913 141.457 3.861C141.518 3.80033 141.592 3.77 141.678 3.77H142.289C142.376 3.77 142.445 3.80033 142.497 3.861C142.558 3.913 142.588 3.98233 142.588 4.069V12.701C142.588 12.7877 142.558 12.8613 142.497 12.922C142.445 12.974 142.376 13 142.289 13H141.678ZM147.231 13.13C146.339 13.13 145.624 12.857 145.086 12.311C144.558 11.7563 144.267 11.0023 144.215 10.049L144.202 9.607L144.215 9.178C144.276 8.242 144.571 7.49667 145.099 6.942C145.637 6.38733 146.343 6.11 147.218 6.11C148.18 6.11 148.926 6.41767 149.454 7.033C149.983 7.63967 150.247 8.463 150.247 9.503V9.724C150.247 9.81067 150.217 9.88433 150.156 9.945C150.104 9.997 150.035 10.023 149.948 10.023H145.45V10.14C145.476 10.7033 145.645 11.1843 145.957 11.583C146.278 11.973 146.698 12.168 147.218 12.168C147.617 12.168 147.942 12.09 148.193 11.934C148.453 11.7693 148.644 11.6003 148.765 11.427C148.843 11.323 148.9 11.2623 148.934 11.245C148.978 11.219 149.051 11.206 149.155 11.206H149.792C149.87 11.206 149.935 11.2277 149.987 11.271C150.039 11.3143 150.065 11.375 150.065 11.453C150.065 11.6437 149.944 11.8733 149.701 12.142C149.467 12.4107 149.134 12.6447 148.7 12.844C148.276 13.0347 147.786 13.13 147.231 13.13ZM149.012 9.126V9.087C149.012 8.489 148.848 8.00367 148.518 7.631C148.198 7.24967 147.764 7.059 147.218 7.059C146.672 7.059 146.239 7.24967 145.918 7.631C145.606 8.00367 145.45 8.489 145.45 9.087V9.126H149.012ZM153.687 13.13C153.262 13.13 152.868 13.0433 152.504 12.87C152.14 12.6967 151.85 12.4627 151.633 12.168C151.425 11.8647 151.321 11.531 151.321 11.167C151.321 10.595 151.555 10.127 152.023 9.763C152.5 9.39033 153.141 9.14767 153.947 9.035L155.884 8.762V8.385C155.884 7.501 155.377 7.059 154.363 7.059C153.982 7.059 153.67 7.14133 153.427 7.306C153.184 7.462 153.002 7.64833 152.881 7.865C152.855 7.943 152.82 7.99933 152.777 8.034C152.742 8.06867 152.69 8.086 152.621 8.086H152.062C151.984 8.086 151.915 8.06 151.854 8.008C151.802 7.94733 151.776 7.878 151.776 7.8C151.785 7.592 151.88 7.358 152.062 7.098C152.253 6.82933 152.543 6.59967 152.933 6.409C153.323 6.20967 153.804 6.11 154.376 6.11C155.347 6.11 156.044 6.33967 156.469 6.799C156.894 7.24967 157.106 7.813 157.106 8.489V12.701C157.106 12.7877 157.076 12.8613 157.015 12.922C156.963 12.974 156.894 13 156.807 13H156.209C156.122 13 156.049 12.974 155.988 12.922C155.936 12.8613 155.91 12.7877 155.91 12.701V12.142C155.719 12.4193 155.442 12.6533 155.078 12.844C154.714 13.0347 154.25 13.13 153.687 13.13ZM153.96 12.155C154.523 12.155 154.983 11.973 155.338 11.609C155.702 11.2363 155.884 10.7033 155.884 10.01V9.646L154.376 9.867C153.761 9.95367 153.297 10.101 152.985 10.309C152.673 10.5083 152.517 10.764 152.517 11.076C152.517 11.4227 152.66 11.6913 152.946 11.882C153.232 12.064 153.57 12.155 153.96 12.155ZM159.274 13C159.187 13 159.113 12.974 159.053 12.922C159.001 12.8613 158.975 12.7877 158.975 12.701V6.552C158.975 6.46533 159.001 6.39167 159.053 6.331C159.113 6.27033 159.187 6.24 159.274 6.24H159.872C159.958 6.24 160.032 6.27033 160.093 6.331C160.153 6.39167 160.184 6.46533 160.184 6.552V7.124C160.539 6.53467 161.146 6.24 162.004 6.24H162.511C162.597 6.24 162.667 6.27033 162.719 6.331C162.779 6.383 162.81 6.45233 162.81 6.539V7.072C162.81 7.15867 162.779 7.228 162.719 7.28C162.667 7.332 162.597 7.358 162.511 7.358H161.731C161.263 7.358 160.894 7.49667 160.626 7.774C160.357 8.04267 160.223 8.411 160.223 8.879V12.701C160.223 12.7877 160.192 12.8613 160.132 12.922C160.071 12.974 159.997 13 159.911 13H159.274ZM164.212 13C164.126 13 164.052 12.974 163.991 12.922C163.939 12.8613 163.913 12.7877 163.913 12.701V6.539C163.913 6.45233 163.939 6.383 163.991 6.331C164.052 6.27033 164.126 6.24 164.212 6.24H164.823C164.91 6.24 164.979 6.27033 165.031 6.331C165.092 6.383 165.122 6.45233 165.122 6.539V7.111C165.374 6.79033 165.668 6.54333 166.006 6.37C166.353 6.19667 166.782 6.11 167.293 6.11C168.125 6.11 168.771 6.37867 169.23 6.916C169.698 7.44467 169.932 8.151 169.932 9.035V12.701C169.932 12.7877 169.902 12.8613 169.841 12.922C169.789 12.974 169.72 13 169.633 13H168.983C168.897 13 168.823 12.974 168.762 12.922C168.71 12.8613 168.684 12.7877 168.684 12.701V9.1C168.684 8.48467 168.533 8.008 168.229 7.67C167.935 7.332 167.506 7.163 166.942 7.163C166.396 7.163 165.963 7.33633 165.642 7.683C165.322 8.021 165.161 8.49333 165.161 9.1V12.701C165.161 12.7877 165.131 12.8613 165.07 12.922C165.018 12.974 164.949 13 164.862 13H164.212ZM171.992 4.979C171.905 4.979 171.832 4.953 171.771 4.901C171.719 4.84033 171.693 4.76667 171.693 4.68V3.978C171.693 3.89133 171.719 3.81767 171.771 3.757C171.832 3.69633 171.905 3.666 171.992 3.666H172.811C172.898 3.666 172.971 3.69633 173.032 3.757C173.093 3.81767 173.123 3.89133 173.123 3.978V4.68C173.123 4.76667 173.093 4.84033 173.032 4.901C172.971 4.953 172.898 4.979 172.811 4.979H171.992ZM172.096 13C172.009 13 171.936 12.974 171.875 12.922C171.823 12.8613 171.797 12.7877 171.797 12.701V6.539C171.797 6.45233 171.823 6.383 171.875 6.331C171.936 6.27033 172.009 6.24 172.096 6.24H172.72C172.807 6.24 172.876 6.27033 172.928 6.331C172.989 6.383 173.019 6.45233 173.019 6.539V12.701C173.019 12.7877 172.989 12.8613 172.928 12.922C172.876 12.974 172.807 13 172.72 13H172.096ZM175.244 13C175.158 13 175.084 12.974 175.023 12.922C174.971 12.8613 174.945 12.7877 174.945 12.701V6.539C174.945 6.45233 174.971 6.383 175.023 6.331C175.084 6.27033 175.158 6.24 175.244 6.24H175.855C175.942 6.24 176.011 6.27033 176.063 6.331C176.124 6.383 176.154 6.45233 176.154 6.539V7.111C176.406 6.79033 176.7 6.54333 177.038 6.37C177.385 6.19667 177.814 6.11 178.325 6.11C179.157 6.11 179.803 6.37867 180.262 6.916C180.73 7.44467 180.964 8.151 180.964 9.035V12.701C180.964 12.7877 180.934 12.8613 180.873 12.922C180.821 12.974 180.752 13 180.665 13H180.015C179.929 13 179.855 12.974 179.794 12.922C179.742 12.8613 179.716 12.7877 179.716 12.701V9.1C179.716 8.48467 179.565 8.008 179.261 7.67C178.967 7.332 178.538 7.163 177.974 7.163C177.428 7.163 176.995 7.33633 176.674 7.683C176.354 8.021 176.193 8.49333 176.193 9.1V12.701C176.193 12.7877 176.163 12.8613 176.102 12.922C176.05 12.974 175.981 13 175.894 13H175.244ZM185.598 15.86C184.888 15.86 184.316 15.7387 183.882 15.496C183.449 15.262 183.141 14.9933 182.959 14.69C182.777 14.3867 182.678 14.1137 182.66 13.871C182.652 13.7843 182.678 13.7107 182.738 13.65C182.808 13.5893 182.881 13.559 182.959 13.559H183.583C183.661 13.559 183.726 13.5763 183.778 13.611C183.83 13.6543 183.874 13.728 183.908 13.832C184.012 14.1093 184.181 14.3477 184.415 14.547C184.658 14.755 185.031 14.859 185.533 14.859C186.175 14.859 186.647 14.7203 186.95 14.443C187.254 14.1743 187.405 13.6933 187.405 13V12.116C187.18 12.402 186.894 12.6317 186.547 12.805C186.201 12.9697 185.789 13.052 185.312 13.052C184.394 13.052 183.705 12.7617 183.245 12.181C182.795 11.5917 182.556 10.8463 182.53 9.945L182.517 9.581L182.53 9.23C182.556 8.33733 182.799 7.59633 183.258 7.007C183.718 6.409 184.402 6.11 185.312 6.11C186.222 6.11 186.933 6.44367 187.444 7.111V6.552C187.444 6.46533 187.47 6.39167 187.522 6.331C187.583 6.27033 187.657 6.24 187.743 6.24H188.341C188.428 6.24 188.502 6.27033 188.562 6.331C188.623 6.39167 188.653 6.46533 188.653 6.552V12.857C188.653 14.859 187.635 15.86 185.598 15.86ZM185.572 12.012C186.162 12.012 186.608 11.817 186.911 11.427C187.215 11.037 187.379 10.5733 187.405 10.036C187.414 9.958 187.418 9.80633 187.418 9.581C187.418 9.36433 187.414 9.217 187.405 9.139C187.379 8.60167 187.215 8.138 186.911 7.748C186.617 7.358 186.17 7.163 185.572 7.163C184.957 7.163 184.511 7.35367 184.233 7.735C183.956 8.11633 183.804 8.619 183.778 9.243L183.765 9.581L183.778 9.932C183.804 10.5473 183.956 11.05 184.233 11.44C184.511 11.8213 184.957 12.012 185.572 12.012ZM190.911 10.842C190.824 10.842 190.751 10.816 190.69 10.764C190.638 10.7033 190.612 10.6297 190.612 10.543V4.199C190.612 4.11233 190.638 4.043 190.69 3.991C190.751 3.93033 190.824 3.9 190.911 3.9H191.522C191.609 3.9 191.678 3.93033 191.73 3.991C191.791 4.043 191.821 4.11233 191.821 4.199V10.543C191.821 10.6297 191.791 10.7033 191.73 10.764C191.678 10.816 191.609 10.842 191.522 10.842H190.911ZM190.794 13C190.707 13 190.634 12.974 190.573 12.922C190.521 12.8613 190.495 12.7877 190.495 12.701V11.882C190.495 11.7953 190.521 11.7217 190.573 11.661C190.634 11.6003 190.707 11.57 190.794 11.57H191.626C191.713 11.57 191.782 11.6003 191.834 11.661C191.895 11.7217 191.925 11.7953 191.925 11.882V12.701C191.925 12.7877 191.895 12.8613 191.834 12.922C191.782 12.974 191.713 13 191.626 13H190.794Z" fill="#E23744"/>
</svg>
